<?xml version="1.0" standalone="no"?>
<!DOCTYPE svg PUBLIC "-//W3C//DTD SVG 20010904//EN"
 "http://www.w3.org/TR/2001/REC-SVG-20010904/DTD/svg10.dtd">
<svg version="1.0" xmlns="http://www.w3.org/2000/svg"
 width="700.000000pt" height="700.000000pt" viewBox="0 0 700.000000 700.000000"
 preserveAspectRatio="xMidYMid meet">
<metadata>
Created by potrace 1.11, written by Peter Selinger 2001-2013
</metadata>
<g transform="translate(0.000000,700.000000) scale(0.100000,-0.100000)"
fill="#000000" stroke="none">
<path d="M1692 6882 c-71 -26 -118 -66 -156 -132 l-31 -55 -3 -182 -4 -183
-177 0 c-198 0 -288 -16 -384 -67 -72 -38 -195 -164 -235 -239 -62 -120 -65
-139 -70 -584 -2 -223 -1 -532 3 -687 l7 -283 2858 0 2858 0 7 283 c4 155 5
464 3 687 -5 445 -8 464 -70 584 -40 75 -163 201 -235 239 -81 43 -191 67
-310 67 -56 0 -103 1 -104 3 -1 1 -4 85 -8 187 -6 161 -10 190 -28 225 -91
172 -336 202 -463 58 -58 -66 -70 -113 -70 -274 0 -75 -3 -151 -6 -168 l-7
-31 -1497 0 -1498 0 -4 173 c-3 153 -6 178 -27 224 -26 58 -93 127 -147 149
-59 25 -142 27 -202 6z"/>
<path d="M1800 2766 l0 -1096 364 0 c200 0 409 5 465 10 329 34 585 204 721
477 79 160 100 287 100 608 0 316 -21 447 -96 599 -103 209 -296 378 -503 442
-145 45 -161 47 -613 51 l-438 4 0 -1095z m891 766 c182 -60 318 -215 366
-419 26 -112 26 -593 0 -698 -53 -213 -194 -366 -388 -422 -38 -11 -119 -17
-276 -20 l-223 -5 0 797 0 797 228 -4 c197 -4 236 -8 293 -26z"/>
<path d="M3810 2765 l0 -1095 438 0 c240 0 478 5 527 10 328 37 534 188 600
440 21 79 24 243 6 320 -41 170 -157 305 -314 362 l-58 21 55 30 c107 57 193
159 228 270 21 68 24 207 7 289 -43 200 -200 348 -434 408 -122 31 -268 40
-677 40 l-378 0 0 -1095z m922 766 c135 -44 198 -123 206 -261 10 -178 -83
-289 -269 -319 -35 -6 -157 -11 -271 -11 l-208 0 0 311 0 311 238 -4 c208 -5
245 -8 304 -27z m114 -899 c99 -45 157 -131 173 -259 16 -132 -15 -240 -88
-306 -89 -80 -178 -97 -518 -97 l-223 0 0 346 0 345 303 -3 c291 -3 304 -4
353 -26z"/>
<path d="M641 955 c-1 -96 4 -160 14 -200 48 -188 191 -344 373 -407 l67 -23
2405 0 2405 0 67 23 c182 63 325 219 373 407 10 40 15 104 14 200 -1 135 -1
138 -13 87 -48 -196 -204 -355 -411 -419 -58 -17 -157 -18 -2435 -18 -2278 0
-2377 1 -2435 18 -207 64 -363 223 -411 419 -12 51 -12 48 -13 -87z"/>
</g>
</svg>
