<svg xmlns="http://www.w3.org/2000/svg" width="300" height="200"><path fill="#C2E617" d="M0 0h300v200H0V0z"/><path fill="#FFF" d="M231.7 94.2L223.5 39l-8.2 55.2c2.6-.7 5.3-1 8.2-1a28 28 0 018.2 1zm19.7 14.9l33.3-44.8-44.8 33.3c4.7 2.8 8.7 6.8 11.5 11.5zm-44.3-11.5l-44.8-33.3 33.3 44.8c2.8-4.7 6.8-8.7 11.5-11.5zM310 125.5l-55.2-8.2a36.1 36.1 0 010 16.4l55.2-8.2zm-86.5-26.6a26.6 26.6 0 100 53.2 26.6 26.6 0 000-53.2zm-32.3 26.6c0-2.8.4-5.6 1-8.2l-55.2 8.2 55.2 8.2c-.7-2.6-1-5.4-1-8.2zm48.7 27.9l44.8 33.3-33.3-44.8a33.3 33.3 0 01-11.5 11.5zm-24.6 3.4l8.2 55.2 8.2-55.2a31.8 31.8 0 01-16.4 0zm-19.7-14.9l-33.3 44.8 44.8-33.3a33.3 33.3 0 01-11.5-11.5z" opacity=".5"/><path d="M67.7 92.2H25.3v-6l21.4-23.7c3.9-4.2 6.5-7.6 7.8-10.1 1.4-2.5 2-5 2-7.7 0-3.2-.9-6-2.8-8.2a9.5 9.5 0 00-7.6-3.3c-4.5 0-7.8 1.2-10 3.5a13.7 13.7 0 00-3.2 9.7h-8.5V46A18.2 18.2 0 0130 32c3.9-3.8 9.3-5.7 16.1-5.7 6 0 10.6 1.7 14 5 3.6 3.5 5.3 7.8 5.3 13.1 0 3.5-1 7.1-3.2 10.7-2 3.5-5 7.3-8.8 11.4L36.2 85.1v.2h31.5v7zm48.9-24.8a29 29 0 01-5.6 19.1 18.8 18.8 0 01-15.2 6.7 19 19 0 01-15.3-6.7 28.8 28.8 0 01-5.6-19V52a29 29 0 015.6-19c3.7-4.5 8.8-6.7 15.2-6.7 6.5 0 11.5 2.2 15.3 6.7a29 29 0 015.6 19v15.4zm-8.9-17.3c0-5.6-1-9.8-3-12.6s-5-4.3-9-4.3c-3.9 0-6.8 1.4-8.9 4.3-2 2.8-3 7-3 12.6v19.1c0 5.6 1 9.9 3 12.7 2.1 2.9 5.1 4.3 9 4.3 4 0 6.9-1.4 8.9-4.2 2-2.9 3-7.2 3-12.8v-19zm42.6 42.1h-8.8V35.8L128 36v-6.4l22.2-2.4v65zm67 0H175v-6l21.4-23.7c3.9-4.2 6.5-7.6 7.8-10.1 1.4-2.5 2-5 2-7.7 0-3.2-.9-6-2.8-8.2a9.5 9.5 0 00-7.6-3.3c-4.5 0-7.8 1.2-10 3.5a13.7 13.7 0 00-3.2 9.7h-8.4l-.1-.3a18.2 18.2 0 015.6-14.1c3.9-3.8 9.3-5.7 16.1-5.7 6 0 10.6 1.7 14 5 3.6 3.5 5.3 7.8 5.3 13.1 0 3.5-1 7.1-3.1 10.7-2.2 3.5-5.1 7.3-9 11.4l-17.1 18.6v.2h31.5v7z" fill="#FFF"/><path d="M67.7 92.2H25.3v-6l21.4-23.7c3.9-4.2 6.5-7.6 7.8-10.1 1.4-2.5 2-5 2-7.7 0-3.2-.9-6-2.8-8.2a9.5 9.5 0 00-7.6-3.3c-4.5 0-7.8 1.2-10 3.5a13.7 13.7 0 00-3.2 9.7h-8.5V46A18.2 18.2 0 0130 32c3.9-3.8 9.3-5.7 16.1-5.7 6 0 10.6 1.7 14 5 3.6 3.5 5.3 7.8 5.3 13.1 0 3.5-1 7.1-3.2 10.7-2 3.5-5 7.3-8.8 11.4L36.2 85.1v.2h31.5v7zm48.9-24.8a29 29 0 01-5.6 19.1 18.8 18.8 0 01-15.2 6.7 19 19 0 01-15.3-6.7 28.8 28.8 0 01-5.6-19V52a29 29 0 015.6-19c3.7-4.5 8.8-6.7 15.2-6.7 6.5 0 11.5 2.2 15.3 6.7a29 29 0 015.6 19v15.4zm-8.9-17.3c0-5.6-1-9.8-3-12.6s-5-4.3-9-4.3c-3.9 0-6.8 1.4-8.9 4.3-2 2.8-3 7-3 12.6v19.1c0 5.6 1 9.9 3 12.7 2.1 2.9 5.1 4.3 9 4.3 4 0 6.9-1.4 8.9-4.2 2-2.9 3-7.2 3-12.8v-19zm42.6 42.1h-8.8V35.8L128 36v-6.4l22.2-2.4v65zm67 0H175v-6l21.4-23.7c3.9-4.2 6.5-7.6 7.8-10.1 1.4-2.5 2-5 2-7.7 0-3.2-.9-6-2.8-8.2a9.5 9.5 0 00-7.6-3.3c-4.5 0-7.8 1.2-10 3.5a13.7 13.7 0 00-3.2 9.7h-8.4l-.1-.3a18.2 18.2 0 015.6-14.1c3.9-3.8 9.3-5.7 16.1-5.7 6 0 10.6 1.7 14 5 3.6 3.5 5.3 7.8 5.3 13.1 0 3.5-1 7.1-3.1 10.7-2.2 3.5-5.1 7.3-9 11.4l-17.1 18.6v.2h31.5v7z" opacity=".5" fill="none" stroke="#807175" stroke-width="2"/><path d="M67.7 92.2H25.3v-6l21.4-23.7c3.9-4.2 6.5-7.6 7.8-10.1 1.4-2.5 2-5 2-7.7 0-3.2-.9-6-2.8-8.2a9.5 9.5 0 00-7.6-3.3c-4.5 0-7.8 1.2-10 3.5a13.7 13.7 0 00-3.2 9.7h-8.5V46A18.2 18.2 0 0130 32c3.9-3.8 9.3-5.7 16.1-5.7 6 0 10.6 1.7 14 5 3.6 3.5 5.3 7.8 5.3 13.1 0 3.5-1 7.1-3.2 10.7-2 3.5-5 7.3-8.8 11.4L36.2 85.1v.2h31.5v7zm48.9-24.8a29 29 0 01-5.6 19.1 18.8 18.8 0 01-15.2 6.7 19 19 0 01-15.3-6.7 28.8 28.8 0 01-5.6-19V52a29 29 0 015.6-19c3.7-4.5 8.8-6.7 15.2-6.7 6.5 0 11.5 2.2 15.3 6.7a29 29 0 015.6 19v15.4zm-8.9-17.3c0-5.6-1-9.8-3-12.6s-5-4.3-9-4.3c-3.9 0-6.8 1.4-8.9 4.3-2 2.8-3 7-3 12.6v19.1c0 5.6 1 9.9 3 12.7 2.1 2.9 5.1 4.3 9 4.3 4 0 6.9-1.4 8.9-4.2 2-2.9 3-7.2 3-12.8v-19zm42.6 42.1h-8.8V35.8L128 36v-6.4l22.2-2.4v65zm67 0H175v-6l21.4-23.7c3.9-4.2 6.5-7.6 7.8-10.1 1.4-2.5 2-5 2-7.7 0-3.2-.9-6-2.8-8.2a9.5 9.5 0 00-7.6-3.3c-4.5 0-7.8 1.2-10 3.5a13.7 13.7 0 00-3.2 9.7h-8.4l-.1-.3a18.2 18.2 0 015.6-14.1c3.9-3.8 9.3-5.7 16.1-5.7 6 0 10.6 1.7 14 5 3.6 3.5 5.3 7.8 5.3 13.1 0 3.5-1 7.1-3.1 10.7-2.2 3.5-5.1 7.3-9 11.4l-17.1 18.6v.2h31.5v7z" fill="#FFF"/></svg>