<svg xmlns="http://www.w3.org/2000/svg" width="300" height="200"><path fill-rule="evenodd" clip-rule="evenodd" fill="#C2E617" d="M0 0h300v200H0z"/><path fill-rule="evenodd" clip-rule="evenodd" fill="#FFF" d="M231.7 94.2L223.5 39l-8.2 55.2c2.6-.7 5.3-1 8.2-1 2.8-.1 5.6.3 8.2 1zm19.7 14.9l33.3-44.8-44.8 33.3c4.7 2.8 8.7 6.8 11.5 11.5zm-44.3-11.5l-44.8-33.3 33.3 44.8c2.8-4.7 6.8-8.7 11.5-11.5zM310 125.5l-55.2-8.2c.7 2.6 1 5.3 1 8.2s-.4 5.6-1 8.2l55.2-8.2zm-86.5-26.6c-14.7 0-26.6 11.9-26.6 26.6s11.9 26.6 26.6 26.6 26.6-11.9 26.6-26.6-11.9-26.6-26.6-26.6zm-32.3 26.6c0-2.8.4-5.6 1-8.2l-55.2 8.2 55.2 8.2c-.7-2.6-1-5.4-1-8.2zm48.7 27.9l44.8 33.3-33.3-44.8c-2.8 4.7-6.8 8.7-11.5 11.5zm-24.6 3.4l8.2 55.2 8.2-55.2c-2.6.7-5.3 1-8.2 1-2.8 0-5.6-.3-8.2-1zm-19.7-14.9l-33.3 44.8 44.8-33.3c-4.7-2.8-8.7-6.8-11.5-11.5z" opacity=".502"/><g><text transform="matrix(1.006 0 0 1 20 92.221)" fill="#FFF" font-family="'Roboto-Regular'" font-size="91.436" letter-spacing="-2">2012</text><text transform="matrix(1.006 0 0 1 20 92.221)" fill="none" stroke="#807175" stroke-width="2" font-family="'Roboto-Regular'" font-size="91.436" letter-spacing="-2" opacity=".5">2012</text><text transform="matrix(1.006 0 0 1 20 92.221)" fill="#FFF" font-family="'Roboto-Regular'" font-size="91.436" letter-spacing="-2">2012</text></g></svg>