<svg xmlns="http://www.w3.org/2000/svg" width="300" height="200"><path fill="#FF7FFF" d="M0 0h300v200H0V0z"/><path fill="#FFF" d="M225.7 125.6s4.4 56.4 9.3 74.4h31.4c2.1-3.4 3.2-6.7 6.5-9.3 4.7-3.9 10.1-2 16.6-5.4 6.5-3.4 14.5-16.8 7.8-24.8-6.8-8.1-71.6-34.9-71.6-34.9zm16.4-86.5c-7.2 1.1-10.4 5.1-16.6 5.4-6.1.4-9.4-4.3-16.6-5.4-7.2-1.1-21.6 5.1-20.9 15.5.7 10.5 37.4 70.3 37.4 70.3s36.7-59.9 37.4-70.3c.9-10.4-13.5-16.6-20.7-15.5zM281 67.8c-9.7 3.9-55.2 57.4-55.2 57.4s56.2 13.6 74.2 14.2v-62c-3.8-6.4-11.5-12.6-19-9.6zm-127.3 92.6c-6.7 8 1.3 21.5 7.8 24.8 6.5 3.4 11.4 2.1 16.6 5.4 3.6 2.3 4.6 5.7 6.6 9.3H216c4.9-18 9.3-74.4 9.3-74.4s-64.8 26.9-71.6 34.9zM170 67.8c-9.7-3.9-20 7.9-21.2 15.1-1.2 7.2 1.6 11.5 0 17.4-1.5 5.9-7 7.6-10.3 14.1-3.2 6.5-1.9 22.1 8.3 24.7 10.1 2.5 78.3-13.9 78.3-13.9S179.7 71.7 170 67.8z" opacity=".5"/><path d="M67.7 92.2H25.3v-6l21.4-23.7c3.9-4.2 6.5-7.6 7.8-10.1 1.4-2.5 2-5 2-7.7 0-3.2-.9-6-2.8-8.2a9.5 9.5 0 00-7.6-3.3c-4.5 0-7.8 1.2-10 3.5a13.7 13.7 0 00-3.2 9.7h-8.5V46A18.2 18.2 0 0130 32c3.9-3.8 9.3-5.7 16.1-5.7 6 0 10.6 1.7 14 5 3.6 3.5 5.3 7.8 5.3 13.1 0 3.5-1 7.1-3.2 10.7-2 3.5-5 7.3-8.8 11.4L36.2 85.1v.2h31.5v7zm48.9-24.8a29 29 0 01-5.6 19.1 18.8 18.8 0 01-15.2 6.7 19 19 0 01-15.3-6.7 28.8 28.8 0 01-5.6-19V52a29 29 0 015.6-19c3.7-4.5 8.8-6.7 15.2-6.7 6.5 0 11.5 2.2 15.3 6.7a29 29 0 015.6 19v15.4zm-8.9-17.3c0-5.6-1-9.8-3-12.6s-5-4.3-9-4.3c-3.9 0-6.8 1.4-8.9 4.3-2 2.8-3 7-3 12.6v19.1c0 5.6 1 9.9 3 12.7 2.1 2.9 5.1 4.3 9 4.3 4 0 6.9-1.4 8.9-4.2 2-2.9 3-7.2 3-12.8v-19zm42.6 42.1h-8.8V35.8L128 36v-6.4l22.2-2.4v65zM187 55.7h7.8c3.9 0 6.7-1 8.3-3 1.6-2 2.4-4.6 2.4-8.1 0-3.7-.9-6.6-2.7-8.5-1.9-2-4.6-2.9-8.3-2.9-3.4 0-6.2 1-8.3 3-2 2-3 4.7-3 8h-8.6V44c-.2-5 1.6-9.1 5.3-12.6 3.7-3.4 8.6-5.1 14.6-5.1A21 21 0 01209 31c3.6 3.2 5.4 7.7 5.4 13.7 0 2.6-.8 5.3-2.5 8-1.6 2.6-4 4.7-7.3 6 4 1.4 6.7 3.4 8.3 6.1 1.7 2.7 2.5 5.8 2.5 9.2 0 6-2 10.6-5.9 14a22 22 0 01-15 5c-6 0-10.9-1.5-14.8-4.7-3.9-3.2-5.7-7.6-5.6-13l.1-.3h8.5c0 3.4 1 6.1 3.1 8.1 2.2 2 5 3 8.7 3 3.8 0 6.7-1 8.8-3s3.2-5 3.2-9-1-6.9-2.8-8.8c-1.9-1.9-4.9-2.8-9-2.8H187v-7z" fill="#FFF"/><path d="M67.7 92.2H25.3v-6l21.4-23.7c3.9-4.2 6.5-7.6 7.8-10.1 1.4-2.5 2-5 2-7.7 0-3.2-.9-6-2.8-8.2a9.5 9.5 0 00-7.6-3.3c-4.5 0-7.8 1.2-10 3.5a13.7 13.7 0 00-3.2 9.7h-8.5V46A18.2 18.2 0 0130 32c3.9-3.8 9.3-5.7 16.1-5.7 6 0 10.6 1.7 14 5 3.6 3.5 5.3 7.8 5.3 13.1 0 3.5-1 7.1-3.2 10.7-2 3.5-5 7.3-8.8 11.4L36.2 85.1v.2h31.5v7zm48.9-24.8a29 29 0 01-5.6 19.1 18.8 18.8 0 01-15.2 6.7 19 19 0 01-15.3-6.7 28.8 28.8 0 01-5.6-19V52a29 29 0 015.6-19c3.7-4.5 8.8-6.7 15.2-6.7 6.5 0 11.5 2.2 15.3 6.7a29 29 0 015.6 19v15.4zm-8.9-17.3c0-5.6-1-9.8-3-12.6s-5-4.3-9-4.3c-3.9 0-6.8 1.4-8.9 4.3-2 2.8-3 7-3 12.6v19.1c0 5.6 1 9.9 3 12.7 2.1 2.9 5.1 4.3 9 4.3 4 0 6.9-1.4 8.9-4.2 2-2.9 3-7.2 3-12.8v-19zm42.6 42.1h-8.8V35.8L128 36v-6.4l22.2-2.4v65zM187 55.7h7.8c3.9 0 6.7-1 8.3-3 1.6-2 2.4-4.6 2.4-8.1 0-3.7-.9-6.6-2.7-8.5-1.9-2-4.6-2.9-8.3-2.9-3.4 0-6.2 1-8.3 3-2 2-3 4.7-3 8h-8.6V44c-.2-5 1.6-9.1 5.3-12.6 3.7-3.4 8.6-5.1 14.6-5.1A21 21 0 01209 31c3.6 3.2 5.4 7.7 5.4 13.7 0 2.6-.8 5.3-2.5 8-1.6 2.6-4 4.7-7.3 6 4 1.4 6.7 3.4 8.3 6.1 1.7 2.7 2.5 5.8 2.5 9.2 0 6-2 10.6-5.9 14a22 22 0 01-15 5c-6 0-10.9-1.5-14.8-4.7-3.9-3.2-5.7-7.6-5.6-13l.1-.3h8.5c0 3.4 1 6.1 3.1 8.1 2.2 2 5 3 8.7 3 3.8 0 6.7-1 8.8-3s3.2-5 3.2-9-1-6.9-2.8-8.8c-1.9-1.9-4.9-2.8-9-2.8H187v-7z" opacity=".5" fill="none" stroke="#807175" stroke-width="2"/><path d="M67.7 92.2H25.3v-6l21.4-23.7c3.9-4.2 6.5-7.6 7.8-10.1 1.4-2.5 2-5 2-7.7 0-3.2-.9-6-2.8-8.2a9.5 9.5 0 00-7.6-3.3c-4.5 0-7.8 1.2-10 3.5a13.7 13.7 0 00-3.2 9.7h-8.5V46A18.2 18.2 0 0130 32c3.9-3.8 9.3-5.7 16.1-5.7 6 0 10.6 1.7 14 5 3.6 3.5 5.3 7.8 5.3 13.1 0 3.5-1 7.1-3.2 10.7-2 3.5-5 7.3-8.8 11.4L36.2 85.1v.2h31.5v7zm48.9-24.8a29 29 0 01-5.6 19.1 18.8 18.8 0 01-15.2 6.7 19 19 0 01-15.3-6.7 28.8 28.8 0 01-5.6-19V52a29 29 0 015.6-19c3.7-4.5 8.8-6.7 15.2-6.7 6.5 0 11.5 2.2 15.3 6.7a29 29 0 015.6 19v15.4zm-8.9-17.3c0-5.6-1-9.8-3-12.6s-5-4.3-9-4.3c-3.9 0-6.8 1.4-8.9 4.3-2 2.8-3 7-3 12.6v19.1c0 5.6 1 9.9 3 12.7 2.1 2.9 5.1 4.3 9 4.3 4 0 6.9-1.4 8.9-4.2 2-2.9 3-7.2 3-12.8v-19zm42.6 42.1h-8.8V35.8L128 36v-6.4l22.2-2.4v65zM187 55.7h7.8c3.9 0 6.7-1 8.3-3 1.6-2 2.4-4.6 2.4-8.1 0-3.7-.9-6.6-2.7-8.5-1.9-2-4.6-2.9-8.3-2.9-3.4 0-6.2 1-8.3 3-2 2-3 4.7-3 8h-8.6V44c-.2-5 1.6-9.1 5.3-12.6 3.7-3.4 8.6-5.1 14.6-5.1A21 21 0 01209 31c3.6 3.2 5.4 7.7 5.4 13.7 0 2.6-.8 5.3-2.5 8-1.6 2.6-4 4.7-7.3 6 4 1.4 6.7 3.4 8.3 6.1 1.7 2.7 2.5 5.8 2.5 9.2 0 6-2 10.6-5.9 14a22 22 0 01-15 5c-6 0-10.9-1.5-14.8-4.7-3.9-3.2-5.7-7.6-5.6-13l.1-.3h8.5c0 3.4 1 6.1 3.1 8.1 2.2 2 5 3 8.7 3 3.8 0 6.7-1 8.8-3s3.2-5 3.2-9-1-6.9-2.8-8.8c-1.9-1.9-4.9-2.8-9-2.8H187v-7z" fill="#FFF"/></svg>