<svg xmlns="http://www.w3.org/2000/svg" width="300" height="200"><path fill-rule="evenodd" clip-rule="evenodd" fill="#FFAB57" d="M0 0h300v200H0z"/><path fill-rule="evenodd" clip-rule="evenodd" fill="#FFF" d="M300 91.5c-10.5.1-18.4 4.1-18.4 4.1s1.5-6.1-2.3-12.9c-10.6 1.5-27.2 18.2-29.4 22-2.3 3.8 11.3-26.6 6.8-41-7.5 0-19.6 5.3-19.6 5.3s0-28.1-13.6-38c-13.6 9.9-13.6 38-13.6 38s-12.1-5.3-19.6-5.3c-4.5 14.4 9.1 44.8 6.8 41-2.3-3.8-18.9-20.5-29.4-22-3.8 6.8-2.3 12.9-2.3 12.9s-10.6-5.3-23.4-3.8c.8 10.6 18.9 31.9 18.9 31.9s-6.8 0-13.6 4.6c3.8 11.4 27.9 22.8 27.9 22.8l-18.9 20.5s32.6 19.3 64.2 5.2c-.3 7.8-1.2 16.2-2.8 23.4h7.5c1.5-7.9 2.3-15.9 2.7-22.7 31.1 12.8 62.7-5.8 62.7-5.8l-18.9-20.5s24.2-11.4 27.9-22.8c-6.8-4.6-13.6-4.6-13.6-4.6s8.3-9.7 13.9-19.3v-13z" opacity=".502"/><g><text transform="matrix(1.006 0 0 1 20 92.221)" fill="#FFF" font-family="'Roboto-Regular'" font-size="91.436" letter-spacing="-2">2013</text><text transform="matrix(1.006 0 0 1 20 92.221)" fill="none" stroke="#807175" stroke-width="2" font-family="'Roboto-Regular'" font-size="91.436" letter-spacing="-2" opacity=".5">2013</text><text transform="matrix(1.006 0 0 1 20 92.221)" fill="#FFF" font-family="'Roboto-Regular'" font-size="91.436" letter-spacing="-2">2013</text></g></svg>