<?xml version="1.0" encoding="utf-8"?>
<!-- Generator: Adobe Illustrator 16.0.0, SVG Export Plug-In . SVG Version: 6.00 Build 0)  -->
<!DOCTYPE svg PUBLIC "-//W3C//DTD SVG 1.1//EN" "http://www.w3.org/Graphics/SVG/1.1/DTD/svg11.dtd">
<svg version="1.1" xmlns="http://www.w3.org/2000/svg" xmlns:xlink="http://www.w3.org/1999/xlink" x="0px" y="0px" width="300px"
	 height="200px" viewBox="0 0 300 200" enable-background="new 0 0 300 200" xml:space="preserve">
<g id="Inverno_1_" display="none" enable-background="new    ">
	<g id="Color_Fill_1" display="inline">
		<g>
			<rect fill-rule="evenodd" clip-rule="evenodd" fill="#0080FF" width="300" height="200"/>
		</g>
	</g>
	<g id="Inverno" display="inline" opacity="0.502" enable-background="new    ">
		<g id="Shape_1">
			<g>
				<polygon fill-rule="evenodd" clip-rule="evenodd" fill="#FFFFFF" points="300,120.8 293.7,120.8 300,109.9 300,98.1 298.4,95.3 
					288.3,95.3 273.6,120.8 240.6,120.8 257.1,92.3 286.6,92.3 291.6,83.6 286.6,74.9 267.2,74.9 278.3,55.7 273.3,47 263.2,47 
					252.1,66.2 242.3,49.5 232.3,49.5 227.2,58.2 242,83.6 225.5,112.1 209,83.6 223.8,58.2 218.7,49.5 208.7,49.5 198.9,66.2 
					187.8,47 177.8,47 172.7,55.7 183.8,74.9 164.4,74.9 159.4,83.6 164.4,92.3 193.9,92.3 210.4,120.8 177.4,120.8 162.7,95.3 
					152.6,95.3 147.6,104 157.3,120.8 135,120.8 130,129.5 135,138.2 157.3,138.2 147.6,155 152.6,163.7 162.7,163.7 177.4,138.2 
					210.4,138.2 193.9,166.7 164.4,166.7 159.4,175.4 164.4,184.1 183.8,184.1 174.6,200 194.8,200 198.9,192.8 203.1,200 
					223.3,200 209,175.4 225.5,146.9 242,175.4 227.7,200 247.9,200 252.1,192.8 256.2,200 276.4,200 267.2,184.1 286.6,184.1 
					291.6,175.4 286.6,166.7 257.1,166.7 240.6,138.2 273.6,138.2 288.3,163.7 298.4,163.7 300,160.9 300,149.1 293.7,138.2 
					300,138.2 				"/>
			</g>
		</g>
	</g>
</g>
<g id="Primavera" display="none" enable-background="new    ">
	<g id="Color_Fill_1_1_" display="inline">
		<g>
			<rect fill-rule="evenodd" clip-rule="evenodd" fill="#FF7FFF" width="300" height="200"/>
		</g>
	</g>
	<g id="Shape_2_1_" display="inline" opacity="0.502" enable-background="new    ">
		<g id="Shape_2">
			<g>
				<path fill-rule="evenodd" clip-rule="evenodd" fill="#FFFFFF" d="M225.7,125.6c0,0,4.4,56.4,9.3,74.4h31.4
					c2.1-3.4,3.2-6.7,6.5-9.3c4.7-3.9,10.1-2,16.6-5.4c6.5-3.4,14.5-16.8,7.8-24.8C290.5,152.4,225.7,125.6,225.7,125.6z
					 M242.1,39.1c-7.2,1.1-10.4,5.1-16.6,5.4c-6.1,0.4-9.4-4.3-16.6-5.4c-7.2-1.1-21.6,5.1-20.9,15.5c0.7,10.5,37.4,70.3,37.4,70.3
					s36.7-59.9,37.4-70.3C263.7,44.2,249.3,38,242.1,39.1z M281,67.8c-9.7,3.9-55.2,57.4-55.2,57.4s56.2,13.6,74.2,14.2v-62
					C296.2,71,288.5,64.8,281,67.8z M153.7,160.4c-6.7,8,1.3,21.5,7.8,24.8c6.5,3.4,11.4,2.1,16.6,5.4c3.6,2.3,4.6,5.7,6.6,9.3H216
					c4.9-18,9.3-74.4,9.3-74.4S160.5,152.4,153.7,160.4z M170,67.8c-9.7-3.9-20,7.9-21.2,15.1c-1.2,7.2,1.6,11.5,0,17.4
					c-1.5,5.9-7,7.6-10.3,14.1c-3.2,6.5-1.9,22.1,8.3,24.7c10.1,2.5,78.3-13.9,78.3-13.9S179.7,71.7,170,67.8z"/>
			</g>
		</g>
	</g>
</g>
<g id="Verão" display="none" enable-background="new    ">
	<g id="Color_Fill_1_2_" display="inline">
		<g>
			<rect fill-rule="evenodd" clip-rule="evenodd" fill="#C2E617" width="300" height="200"/>
		</g>
	</g>
	<g id="Shape_4_1_" display="inline" opacity="0.502" enable-background="new    ">
		<g id="Shape_4">
			<g>
				<path fill-rule="evenodd" clip-rule="evenodd" fill="#FFFFFF" d="M231.7,94.2L223.5,39l-8.2,55.2c2.6-0.7,5.3-1,8.2-1
					C226.3,93.1,229.1,93.5,231.7,94.2z M251.4,109.1l33.3-44.8l-44.8,33.3C244.6,100.4,248.6,104.4,251.4,109.1z M207.1,97.6
					l-44.8-33.3l33.3,44.8C198.4,104.4,202.4,100.4,207.1,97.6z M310,125.5l-55.2-8.2c0.7,2.6,1,5.3,1,8.2s-0.4,5.6-1,8.2L310,125.5
					z M223.5,98.9c-14.7,0-26.6,11.9-26.6,26.6s11.9,26.6,26.6,26.6s26.6-11.9,26.6-26.6S238.2,98.9,223.5,98.9z M191.2,125.5
					c0-2.8,0.4-5.6,1-8.2l-55.2,8.2l55.2,8.2C191.5,131.1,191.2,128.3,191.2,125.5z M239.9,153.4l44.8,33.3l-33.3-44.8
					C248.6,146.6,244.6,150.6,239.9,153.4z M215.3,156.8l8.2,55.2l8.2-55.2c-2.6,0.7-5.3,1-8.2,1
					C220.7,157.8,217.9,157.5,215.3,156.8z M195.6,141.9l-33.3,44.8l44.8-33.3C202.4,150.6,198.4,146.6,195.6,141.9z"/>
			</g>
		</g>
	</g>
</g>
<g id="Outono" enable-background="new    ">
	<g id="Color_Fill_1_3_">
		<g>
			<rect fill-rule="evenodd" clip-rule="evenodd" fill="#FFAB57" width="300" height="200"/>
		</g>
	</g>
	<g id="Shape_3_1_" opacity="0.502" enable-background="new    ">
		<g id="Shape_3">
			<g>
				<path fill-rule="evenodd" clip-rule="evenodd" fill="#FFFFFF" d="M300,91.5c-10.5,0.1-18.4,4.1-18.4,4.1s1.5-6.1-2.3-12.9
					c-10.6,1.5-27.2,18.2-29.4,22c-2.3,3.8,11.3-26.6,6.8-41c-7.5,0-19.6,5.3-19.6,5.3s0-28.1-13.6-38c-13.6,9.9-13.6,38-13.6,38
					s-12.1-5.3-19.6-5.3c-4.5,14.4,9.1,44.8,6.8,41c-2.3-3.8-18.9-20.5-29.4-22c-3.8,6.8-2.3,12.9-2.3,12.9s-10.6-5.3-23.4-3.8
					c0.8,10.6,18.9,31.9,18.9,31.9s-6.8,0-13.6,4.6c3.8,11.4,27.9,22.8,27.9,22.8l-18.9,20.5c0,0,32.6,19.3,64.2,5.2
					c-0.3,7.8-1.2,16.2-2.8,23.4h7.5c1.5-7.9,2.3-15.9,2.7-22.7c31.1,12.8,62.7-5.8,62.7-5.8l-18.9-20.5c0,0,24.2-11.4,27.9-22.8
					c-6.8-4.6-13.6-4.6-13.6-4.6s8.3-9.7,13.9-19.3V91.5z"/>
			</g>
		</g>
	</g>
</g>
<g id="Anos">
	<g id="_x32_010" display="none">
		
			<text transform="matrix(1.006 0 0 1 20.0005 92.2212)" display="inline" fill="#FFFFFF" font-family="'Roboto-Regular'" font-size="91.4365" letter-spacing="-2">2010</text>
		<g display="inline" opacity="0.5">
			
				<text transform="matrix(1.006 0 0 1 20.0005 92.2212)" fill="none" stroke="#807175" stroke-width="2" font-family="'Roboto-Regular'" font-size="91.4365" letter-spacing="-2">2010</text>
		</g>
		
			<text transform="matrix(1.006 0 0 1 20.0005 92.2212)" display="inline" fill="#FFFFFF" font-family="'Roboto-Regular'" font-size="91.4365" letter-spacing="-2">2010</text>
	</g>
	<g id="_x32_011" display="none">
		
			<text transform="matrix(1.006 0 0 1 20.0005 92.2212)" display="inline" fill="#FFFFFF" font-family="'Roboto-Regular'" font-size="91.4365" letter-spacing="-2">2011</text>
		<g display="inline" opacity="0.5">
			
				<text transform="matrix(1.006 0 0 1 20.0005 92.2212)" fill="none" stroke="#807175" stroke-width="2" font-family="'Roboto-Regular'" font-size="91.4365" letter-spacing="-2">2011</text>
		</g>
		
			<text transform="matrix(1.006 0 0 1 20.0005 92.2212)" display="inline" fill="#FFFFFF" font-family="'Roboto-Regular'" font-size="91.4365" letter-spacing="-2">2011</text>
	</g>
	<g id="_x32_012" display="none">
		
			<text transform="matrix(1.006 0 0 1 20.0005 92.2212)" display="inline" fill="#FFFFFF" font-family="'Roboto-Regular'" font-size="91.4365" letter-spacing="-2">2012</text>
		<g display="inline" opacity="0.5">
			
				<text transform="matrix(1.006 0 0 1 20.0005 92.2212)" fill="none" stroke="#807175" stroke-width="2" font-family="'Roboto-Regular'" font-size="91.4365" letter-spacing="-2">2012</text>
		</g>
		
			<text transform="matrix(1.006 0 0 1 20.0005 92.2212)" display="inline" fill="#FFFFFF" font-family="'Roboto-Regular'" font-size="91.4365" letter-spacing="-2">2012</text>
	</g>
	<g id="_x32_013">
		
			<text transform="matrix(1.006 0 0 1 20.0005 92.2212)" fill="#FFFFFF" font-family="'Roboto-Regular'" font-size="91.4365" letter-spacing="-2">2013</text>
		<g opacity="0.5">
			
				<text transform="matrix(1.006 0 0 1 20.0005 92.2212)" fill="none" stroke="#807175" stroke-width="2" font-family="'Roboto-Regular'" font-size="91.4365" letter-spacing="-2">2013</text>
		</g>
		
			<text transform="matrix(1.006 0 0 1 20.0005 92.2212)" fill="#FFFFFF" font-family="'Roboto-Regular'" font-size="91.4365" letter-spacing="-2">2013</text>
	</g>
	<g id="_x32_014" display="none">
		
			<text transform="matrix(1.006 0 0 1 20.0005 92.2212)" display="inline" fill="#FFFFFF" font-family="'Roboto-Regular'" font-size="91.4365" letter-spacing="-2">2014</text>
		<g display="inline" opacity="0.5">
			
				<text transform="matrix(1.006 0 0 1 20.0005 92.2212)" fill="none" stroke="#807175" stroke-width="2" font-family="'Roboto-Regular'" font-size="91.4365" letter-spacing="-2">2014</text>
		</g>
		
			<text transform="matrix(1.006 0 0 1 20.0005 92.2212)" display="inline" fill="#FFFFFF" font-family="'Roboto-Regular'" font-size="91.4365" letter-spacing="-2">2014</text>
	</g>
	<g id="_x32_015" display="none">
		
			<text transform="matrix(1.006 0 0 1 20.0005 92.2212)" display="inline" fill="#FFFFFF" font-family="'Roboto-Regular'" font-size="91.4365" letter-spacing="-2">2015</text>
		<g display="inline" opacity="0.5">
			
				<text transform="matrix(1.006 0 0 1 20.0005 92.2212)" fill="none" stroke="#807175" stroke-width="2" font-family="'Roboto-Regular'" font-size="91.4365" letter-spacing="-2">2015</text>
		</g>
		
			<text transform="matrix(1.006 0 0 1 20.0005 92.2212)" display="inline" fill="#FFFFFF" font-family="'Roboto-Regular'" font-size="91.4365" letter-spacing="-2">2015</text>
	</g>
	<g id="_x32_016" display="none">
		
			<text transform="matrix(1.006 0 0 1 20.0005 92.2212)" display="inline" fill="#FFFFFF" font-family="'Roboto-Regular'" font-size="91.4365" letter-spacing="-2">2016</text>
		<g display="inline" opacity="0.5">
			
				<text transform="matrix(1.006 0 0 1 20.0005 92.2212)" fill="none" stroke="#807175" stroke-width="2" font-family="'Roboto-Regular'" font-size="91.4365" letter-spacing="-2">2016</text>
		</g>
		
			<text transform="matrix(1.006 0 0 1 20.0005 92.2212)" display="inline" fill="#FFFFFF" font-family="'Roboto-Regular'" font-size="91.4365" letter-spacing="-2">2016</text>
	</g>
	<g id="_x32_017" display="none">
		<g display="inline">
			
				<text transform="matrix(1.006 0 0 1 20.0005 92.2212)" fill="#FFFFFF" font-family="'Roboto-Regular'" font-size="91.4365" letter-spacing="-2">2017</text>
			<g opacity="0.5">
				
					<text transform="matrix(1.006 0 0 1 20.0005 92.2212)" fill="none" stroke="#807175" stroke-width="2" font-family="'Roboto-Regular'" font-size="91.4365" letter-spacing="-2">2017</text>
			</g>
			
				<text transform="matrix(1.006 0 0 1 20.0005 92.2212)" fill="#FFFFFF" font-family="'Roboto-Regular'" font-size="91.4365" letter-spacing="-2">2017</text>
		</g>
		<g display="inline">
			<g>
				<path fill="#FFFFFF" d="M67.7,92.2H25.3v-6.1l21.4-23.6c3.8-4.3,6.4-7.6,7.8-10.1c1.4-2.5,2-5.1,2-7.7c0-3.2-1-6-2.9-8.2
					c-1.9-2.2-4.4-3.3-7.6-3.3c-4.5,0-7.9,1.2-10,3.5c-2.1,2.3-3.2,5.5-3.2,9.7h-8.5l-0.1-0.3C24.2,40.5,26.1,35.8,30,32
					c3.9-3.8,9.3-5.7,16.2-5.7c5.9,0,10.5,1.7,14,5.1c3.5,3.4,5.2,7.7,5.2,13c0,3.5-1.1,7.1-3.2,10.6c-2.1,3.6-5.1,7.4-8.9,11.5
					L36.2,85.1l0.1,0.2h31.4V92.2z"/>
				<path fill="#FFFFFF" d="M116.2,67.4c0,8.3-1.8,14.7-5.5,19.1c-3.7,4.4-8.8,6.6-15.2,6.6c-6.4,0-11.5-2.2-15.3-6.7
					c-3.7-4.4-5.6-10.8-5.6-19.1V52c0-8.3,1.9-14.6,5.6-19.1c3.7-4.4,8.8-6.7,15.2-6.7c6.4,0,11.5,2.2,15.2,6.7
					c3.7,4.5,5.6,10.8,5.6,19.1V67.4z M107.4,50.1c0-5.6-1-9.9-3.1-12.7c-2.1-2.8-5-4.3-8.9-4.3c-3.9,0-6.9,1.4-8.9,4.3
					c-2,2.8-3.1,7.1-3.1,12.7v19c0,5.6,1,9.9,3.1,12.7c2.1,2.9,5,4.3,8.9,4.3c3.9,0,6.8-1.4,8.9-4.3c2-2.9,3-7.1,3-12.8V50.1z"/>
				<path fill="#FFFFFF" d="M149.6,92.2h-8.8V35.8L127.4,36v-6.3l22.2-2.4V92.2z"/>
				<path fill="#FFFFFF" d="M216.2,34.1c-7.9,9.3-13.2,17.6-16,24.8c-2.8,7.2-4.8,16-6,26.2l-0.7,7h-8.8l0.7-7
					c1.3-10.2,3.7-19.4,7.3-27.5c3.6-8.1,8.6-15.9,14.9-23.6H172v-6.9h44.2V34.1z"/>
			</g>
			<g opacity="0.5">
				<path fill="none" stroke="#807175" stroke-width="2" d="M67.7,92.2H25.3v-6.1l21.4-23.6c3.8-4.3,6.4-7.6,7.8-10.1
					c1.4-2.5,2-5.1,2-7.7c0-3.2-1-6-2.9-8.2c-1.9-2.2-4.4-3.3-7.6-3.3c-4.5,0-7.9,1.2-10,3.5c-2.1,2.3-3.2,5.5-3.2,9.7h-8.5
					l-0.1-0.3C24.2,40.5,26.1,35.8,30,32c3.9-3.8,9.3-5.7,16.2-5.7c5.9,0,10.5,1.7,14,5.1c3.5,3.4,5.2,7.7,5.2,13
					c0,3.5-1.1,7.1-3.2,10.6c-2.1,3.6-5.1,7.4-8.9,11.5L36.2,85.1l0.1,0.2h31.4V92.2z"/>
				<path fill="none" stroke="#807175" stroke-width="2" d="M116.2,67.4c0,8.3-1.8,14.7-5.5,19.1c-3.7,4.4-8.8,6.6-15.2,6.6
					c-6.4,0-11.5-2.2-15.3-6.7c-3.7-4.4-5.6-10.8-5.6-19.1V52c0-8.3,1.9-14.6,5.6-19.1c3.7-4.4,8.8-6.7,15.2-6.7
					c6.4,0,11.5,2.2,15.2,6.7c3.7,4.5,5.6,10.8,5.6,19.1V67.4z M107.4,50.1c0-5.6-1-9.9-3.1-12.7c-2.1-2.8-5-4.3-8.9-4.3
					c-3.9,0-6.9,1.4-8.9,4.3c-2,2.8-3.1,7.1-3.1,12.7v19c0,5.6,1,9.9,3.1,12.7c2.1,2.9,5,4.3,8.9,4.3c3.9,0,6.8-1.4,8.9-4.3
					c2-2.9,3-7.1,3-12.8V50.1z"/>
				<path fill="none" stroke="#807175" stroke-width="2" d="M149.6,92.2h-8.8V35.8L127.4,36v-6.3l22.2-2.4V92.2z"/>
				<path fill="none" stroke="#807175" stroke-width="2" d="M216.2,34.1c-7.9,9.3-13.2,17.6-16,24.8c-2.8,7.2-4.8,16-6,26.2l-0.7,7
					h-8.8l0.7-7c1.3-10.2,3.7-19.4,7.3-27.5c3.6-8.1,8.6-15.9,14.9-23.6H172v-6.9h44.2V34.1z"/>
			</g>
			<g>
				<path fill="#FFFFFF" d="M67.7,92.2H25.3v-6.1l21.4-23.6c3.8-4.3,6.4-7.6,7.8-10.1c1.4-2.5,2-5.1,2-7.7c0-3.2-1-6-2.9-8.2
					c-1.9-2.2-4.4-3.3-7.6-3.3c-4.5,0-7.9,1.2-10,3.5c-2.1,2.3-3.2,5.5-3.2,9.7h-8.5l-0.1-0.3C24.2,40.5,26.1,35.8,30,32
					c3.9-3.8,9.3-5.7,16.2-5.7c5.9,0,10.5,1.7,14,5.1c3.5,3.4,5.2,7.7,5.2,13c0,3.5-1.1,7.1-3.2,10.6c-2.1,3.6-5.1,7.4-8.9,11.5
					L36.2,85.1l0.1,0.2h31.4V92.2z"/>
				<path fill="#FFFFFF" d="M116.2,67.4c0,8.3-1.8,14.7-5.5,19.1c-3.7,4.4-8.8,6.6-15.2,6.6c-6.4,0-11.5-2.2-15.3-6.7
					c-3.7-4.4-5.6-10.8-5.6-19.1V52c0-8.3,1.9-14.6,5.6-19.1c3.7-4.4,8.8-6.7,15.2-6.7c6.4,0,11.5,2.2,15.2,6.7
					c3.7,4.5,5.6,10.8,5.6,19.1V67.4z M107.4,50.1c0-5.6-1-9.9-3.1-12.7c-2.1-2.8-5-4.3-8.9-4.3c-3.9,0-6.9,1.4-8.9,4.3
					c-2,2.8-3.1,7.1-3.1,12.7v19c0,5.6,1,9.9,3.1,12.7c2.1,2.9,5,4.3,8.9,4.3c3.9,0,6.8-1.4,8.9-4.3c2-2.9,3-7.1,3-12.8V50.1z"/>
				<path fill="#FFFFFF" d="M149.6,92.2h-8.8V35.8L127.4,36v-6.3l22.2-2.4V92.2z"/>
				<path fill="#FFFFFF" d="M216.2,34.1c-7.9,9.3-13.2,17.6-16,24.8c-2.8,7.2-4.8,16-6,26.2l-0.7,7h-8.8l0.7-7
					c1.3-10.2,3.7-19.4,7.3-27.5c3.6-8.1,8.6-15.9,14.9-23.6H172v-6.9h44.2V34.1z"/>
			</g>
		</g>
	</g>
	<g id="_x32_018_1_" display="none">
		<g display="inline">
			<path fill="#FFFFFF" d="M67.7,92.2H25.3v-6.1l21.4-23.6c3.8-4.3,6.4-7.6,7.8-10.1c1.4-2.5,2-5.1,2-7.7c0-3.2-1-6-2.9-8.2
				c-1.9-2.2-4.4-3.3-7.6-3.3c-4.5,0-7.9,1.2-10,3.5c-2.1,2.3-3.2,5.5-3.2,9.7h-8.5l-0.1-0.3C24.2,40.5,26.1,35.8,30,32
				c3.9-3.8,9.3-5.7,16.2-5.7c5.9,0,10.5,1.7,14,5.1c3.5,3.4,5.2,7.7,5.2,13c0,3.5-1.1,7.1-3.2,10.6c-2.1,3.6-5.1,7.4-8.9,11.5
				L36.2,85.1l0.1,0.2h31.4V92.2z"/>
			<path fill="#FFFFFF" d="M116.2,67.4c0,8.3-1.8,14.7-5.5,19.1c-3.7,4.4-8.8,6.6-15.2,6.6c-6.4,0-11.5-2.2-15.3-6.7
				c-3.7-4.4-5.6-10.8-5.6-19.1V52c0-8.3,1.9-14.6,5.6-19.1c3.7-4.4,8.8-6.7,15.2-6.7c6.4,0,11.5,2.2,15.2,6.7
				c3.7,4.5,5.6,10.8,5.6,19.1V67.4z M107.4,50.1c0-5.6-1-9.9-3.1-12.7c-2.1-2.8-5-4.3-8.9-4.3c-3.9,0-6.9,1.4-8.9,4.3
				c-2,2.8-3.1,7.1-3.1,12.7v19c0,5.6,1,9.9,3.1,12.7c2.1,2.9,5,4.3,8.9,4.3c3.9,0,6.8-1.4,8.9-4.3c2-2.9,3-7.1,3-12.8V50.1z"/>
			<path fill="#FFFFFF" d="M149.6,92.2h-8.8V35.8L127.4,36v-6.3l22.2-2.4V92.2z"/>
			<path fill="#FFFFFF" d="M213.9,44.2c0,3.4-1,6.4-2.9,8.9c-1.9,2.5-4.5,4.4-7.8,5.7c3.8,1.3,6.8,3.4,9.1,6.2
				c2.3,2.8,3.4,6,3.4,9.7c0,6-2,10.6-5.9,13.8c-3.9,3.2-9.1,4.8-15.3,4.8c-6.4,0-11.6-1.6-15.5-4.8c-3.9-3.2-5.9-7.8-5.9-13.8
				c0-3.7,1.1-6.9,3.3-9.7c2.2-2.8,5.2-4.9,9-6.2c-3.3-1.3-5.8-3.1-7.7-5.7c-1.9-2.5-2.8-5.5-2.8-8.9c0-5.7,1.8-10.1,5.3-13.2
				c3.5-3.1,8.2-4.7,14.1-4.7c5.7,0,10.4,1.6,14.1,4.7C212.1,34.1,213.9,38.5,213.9,44.2z M206.9,74.4c0-3.6-1.2-6.5-3.5-8.8
				c-2.4-2.3-5.4-3.4-9-3.4c-3.7,0-6.7,1.1-9,3.4c-2.3,2.3-3.4,5.2-3.4,8.8c0,3.7,1.1,6.6,3.4,8.7c2.3,2.1,5.3,3.1,9.1,3.1
				c3.7,0,6.7-1.1,9-3.2C205.7,81,206.9,78.1,206.9,74.4z M205,44.4c0-3.2-1-5.9-3-8c-2-2.1-4.6-3.2-7.7-3.2c-3.1,0-5.7,1-7.6,3.1
				c-1.9,2-2.9,4.7-2.9,8.1c0,3.3,1,6,2.9,7.9c2,2,4.5,3,7.7,3c3.1,0,5.7-1,7.6-3C204,50.3,205,47.7,205,44.4z"/>
		</g>
		<g display="inline" opacity="0.5">
			<path fill="none" stroke="#807175" stroke-width="2" d="M67.7,92.2H25.3v-6.1l21.4-23.6c3.8-4.3,6.4-7.6,7.8-10.1
				c1.4-2.5,2-5.1,2-7.7c0-3.2-1-6-2.9-8.2c-1.9-2.2-4.4-3.3-7.6-3.3c-4.5,0-7.9,1.2-10,3.5c-2.1,2.3-3.2,5.5-3.2,9.7h-8.5l-0.1-0.3
				C24.2,40.5,26.1,35.8,30,32c3.9-3.8,9.3-5.7,16.2-5.7c5.9,0,10.5,1.7,14,5.1c3.5,3.4,5.2,7.7,5.2,13c0,3.5-1.1,7.1-3.2,10.6
				c-2.1,3.6-5.1,7.4-8.9,11.5L36.2,85.1l0.1,0.2h31.4V92.2z"/>
			<path fill="none" stroke="#807175" stroke-width="2" d="M116.2,67.4c0,8.3-1.8,14.7-5.5,19.1c-3.7,4.4-8.8,6.6-15.2,6.6
				c-6.4,0-11.5-2.2-15.3-6.7c-3.7-4.4-5.6-10.8-5.6-19.1V52c0-8.3,1.9-14.6,5.6-19.1c3.7-4.4,8.8-6.7,15.2-6.7
				c6.4,0,11.5,2.2,15.2,6.7c3.7,4.5,5.6,10.8,5.6,19.1V67.4z M107.4,50.1c0-5.6-1-9.9-3.1-12.7c-2.1-2.8-5-4.3-8.9-4.3
				c-3.9,0-6.9,1.4-8.9,4.3c-2,2.8-3.1,7.1-3.1,12.7v19c0,5.6,1,9.9,3.1,12.7c2.1,2.9,5,4.3,8.9,4.3c3.9,0,6.8-1.4,8.9-4.3
				c2-2.9,3-7.1,3-12.8V50.1z"/>
			<path fill="none" stroke="#807175" stroke-width="2" d="M149.6,92.2h-8.8V35.8L127.4,36v-6.3l22.2-2.4V92.2z"/>
			<path fill="none" stroke="#807175" stroke-width="2" d="M213.9,44.2c0,3.4-1,6.4-2.9,8.9c-1.9,2.5-4.5,4.4-7.8,5.7
				c3.8,1.3,6.8,3.4,9.1,6.2c2.3,2.8,3.4,6,3.4,9.7c0,6-2,10.6-5.9,13.8c-3.9,3.2-9.1,4.8-15.3,4.8c-6.4,0-11.6-1.6-15.5-4.8
				c-3.9-3.2-5.9-7.8-5.9-13.8c0-3.7,1.1-6.9,3.3-9.7c2.2-2.8,5.2-4.9,9-6.2c-3.3-1.3-5.8-3.1-7.7-5.7c-1.9-2.5-2.8-5.5-2.8-8.9
				c0-5.7,1.8-10.1,5.3-13.2c3.5-3.1,8.2-4.7,14.1-4.7c5.7,0,10.4,1.6,14.1,4.7C212.1,34.1,213.9,38.5,213.9,44.2z M206.9,74.4
				c0-3.6-1.2-6.5-3.5-8.8c-2.4-2.3-5.4-3.4-9-3.4c-3.7,0-6.7,1.1-9,3.4c-2.3,2.3-3.4,5.2-3.4,8.8c0,3.7,1.1,6.6,3.4,8.7
				c2.3,2.1,5.3,3.1,9.1,3.1c3.7,0,6.7-1.1,9-3.2C205.7,81,206.9,78.1,206.9,74.4z M205,44.4c0-3.2-1-5.9-3-8
				c-2-2.1-4.6-3.2-7.7-3.2c-3.1,0-5.7,1-7.6,3.1c-1.9,2-2.9,4.7-2.9,8.1c0,3.3,1,6,2.9,7.9c2,2,4.5,3,7.7,3c3.1,0,5.7-1,7.6-3
				C204,50.3,205,47.7,205,44.4z"/>
		</g>
		<g display="inline">
			<path fill="#FFFFFF" d="M67.7,92.2H25.3v-6.1l21.4-23.6c3.8-4.3,6.4-7.6,7.8-10.1c1.4-2.5,2-5.1,2-7.7c0-3.2-1-6-2.9-8.2
				c-1.9-2.2-4.4-3.3-7.6-3.3c-4.5,0-7.9,1.2-10,3.5c-2.1,2.3-3.2,5.5-3.2,9.7h-8.5l-0.1-0.3C24.2,40.5,26.1,35.8,30,32
				c3.9-3.8,9.3-5.7,16.2-5.7c5.9,0,10.5,1.7,14,5.1c3.5,3.4,5.2,7.7,5.2,13c0,3.5-1.1,7.1-3.2,10.6c-2.1,3.6-5.1,7.4-8.9,11.5
				L36.2,85.1l0.1,0.2h31.4V92.2z"/>
			<path fill="#FFFFFF" d="M116.2,67.4c0,8.3-1.8,14.7-5.5,19.1c-3.7,4.4-8.8,6.6-15.2,6.6c-6.4,0-11.5-2.2-15.3-6.7
				c-3.7-4.4-5.6-10.8-5.6-19.1V52c0-8.3,1.9-14.6,5.6-19.1c3.7-4.4,8.8-6.7,15.2-6.7c6.4,0,11.5,2.2,15.2,6.7
				c3.7,4.5,5.6,10.8,5.6,19.1V67.4z M107.4,50.1c0-5.6-1-9.9-3.1-12.7c-2.1-2.8-5-4.3-8.9-4.3c-3.9,0-6.9,1.4-8.9,4.3
				c-2,2.8-3.1,7.1-3.1,12.7v19c0,5.6,1,9.9,3.1,12.7c2.1,2.9,5,4.3,8.9,4.3c3.9,0,6.8-1.4,8.9-4.3c2-2.9,3-7.1,3-12.8V50.1z"/>
			<path fill="#FFFFFF" d="M149.6,92.2h-8.8V35.8L127.4,36v-6.3l22.2-2.4V92.2z"/>
			<path fill="#FFFFFF" d="M213.9,44.2c0,3.4-1,6.4-2.9,8.9c-1.9,2.5-4.5,4.4-7.8,5.7c3.8,1.3,6.8,3.4,9.1,6.2
				c2.3,2.8,3.4,6,3.4,9.7c0,6-2,10.6-5.9,13.8c-3.9,3.2-9.1,4.8-15.3,4.8c-6.4,0-11.6-1.6-15.5-4.8c-3.9-3.2-5.9-7.8-5.9-13.8
				c0-3.7,1.1-6.9,3.3-9.7c2.2-2.8,5.2-4.9,9-6.2c-3.3-1.3-5.8-3.1-7.7-5.7c-1.9-2.5-2.8-5.5-2.8-8.9c0-5.7,1.8-10.1,5.3-13.2
				c3.5-3.1,8.2-4.7,14.1-4.7c5.7,0,10.4,1.6,14.1,4.7C212.1,34.1,213.9,38.5,213.9,44.2z M206.9,74.4c0-3.6-1.2-6.5-3.5-8.8
				c-2.4-2.3-5.4-3.4-9-3.4c-3.7,0-6.7,1.1-9,3.4c-2.3,2.3-3.4,5.2-3.4,8.8c0,3.7,1.1,6.6,3.4,8.7c2.3,2.1,5.3,3.1,9.1,3.1
				c3.7,0,6.7-1.1,9-3.2C205.7,81,206.9,78.1,206.9,74.4z M205,44.4c0-3.2-1-5.9-3-8c-2-2.1-4.6-3.2-7.7-3.2c-3.1,0-5.7,1-7.6,3.1
				c-1.9,2-2.9,4.7-2.9,8.1c0,3.3,1,6,2.9,7.9c2,2,4.5,3,7.7,3c3.1,0,5.7-1,7.6-3C204,50.3,205,47.7,205,44.4z"/>
		</g>
	</g>
	<g id="_x32_019" display="none">
		<g display="inline">
			<path fill="#FFFFFF" d="M67.7,92.2H25.3v-6.1l21.4-23.6c3.8-4.3,6.4-7.6,7.8-10.1c1.4-2.5,2-5.1,2-7.7c0-3.2-1-6-2.9-8.2
				c-1.9-2.2-4.4-3.3-7.6-3.3c-4.5,0-7.9,1.2-10,3.5c-2.1,2.3-3.2,5.5-3.2,9.7h-8.5l-0.1-0.3C24.2,40.5,26.1,35.8,30,32
				c3.9-3.8,9.3-5.7,16.2-5.7c5.9,0,10.5,1.7,14,5.1c3.5,3.4,5.2,7.7,5.2,13c0,3.5-1.1,7.1-3.2,10.6c-2.1,3.6-5.1,7.4-8.9,11.5
				L36.2,85.1l0.1,0.2h31.4V92.2z"/>
			<path fill="#FFFFFF" d="M116.2,67.4c0,8.3-1.8,14.7-5.5,19.1c-3.7,4.4-8.8,6.6-15.2,6.6c-6.4,0-11.5-2.2-15.3-6.7
				c-3.7-4.4-5.6-10.8-5.6-19.1V52c0-8.3,1.9-14.6,5.6-19.1c3.7-4.4,8.8-6.7,15.2-6.7c6.4,0,11.5,2.2,15.2,6.7
				c3.7,4.5,5.6,10.8,5.6,19.1V67.4z M107.4,50.1c0-5.6-1-9.9-3.1-12.7c-2.1-2.8-5-4.3-8.9-4.3c-3.9,0-6.9,1.4-8.9,4.3
				c-2,2.8-3.1,7.1-3.1,12.7v19c0,5.6,1,9.9,3.1,12.7c2.1,2.9,5,4.3,8.9,4.3c3.9,0,6.8-1.4,8.9-4.3c2-2.9,3-7.1,3-12.8V50.1z"/>
			<path fill="#FFFFFF" d="M149.6,92.2h-8.8V35.8L127.4,36v-6.3l22.2-2.4V92.2z"/>
			<path fill="#FFFFFF" d="M191.5,86.2c4.3,0,7.8-1.6,10.4-4.9c2.6-3.2,3.9-8,3.9-14.4V64c-1.5,2.1-3.3,3.7-5.5,4.8
				s-4.6,1.6-7.3,1.6c-6.3,0-11.3-1.9-15-5.8c-3.7-3.9-5.6-9.2-5.6-16.1c0-6.5,2-11.9,5.9-16c3.9-4.2,8.7-6.3,14.4-6.3
				c6.8,0,12.2,2.1,16.1,6.4s5.9,10.5,5.9,18.7v15.5c0,8.5-2.1,15-6.4,19.5c-4.3,4.5-9.8,6.8-16.7,6.8c-2.3,0-4.6-0.2-7-0.7
				c-2.4-0.4-4.5-1.1-6.4-2l1.3-6.8c1.8,0.9,3.6,1.6,5.5,1.9C186.8,86.1,189,86.2,191.5,86.2z M192.9,63.5c3.3,0,6-0.7,8.2-2.1
				c2.2-1.4,3.7-3.2,4.7-5.4v-5.6c0-5.7-1.1-10-3.3-12.9c-2.2-2.9-5.4-4.4-9.6-4.4c-3.2,0-6,1.4-8.3,4.3c-2.3,2.9-3.4,6.5-3.4,11
				c0,4.5,1.1,8.1,3.2,10.8C186.4,62.1,189.2,63.5,192.9,63.5z"/>
		</g>
		<g display="inline" opacity="0.5">
			<path fill="none" stroke="#807175" stroke-width="2" d="M67.7,92.2H25.3v-6.1l21.4-23.6c3.8-4.3,6.4-7.6,7.8-10.1
				c1.4-2.5,2-5.1,2-7.7c0-3.2-1-6-2.9-8.2c-1.9-2.2-4.4-3.3-7.6-3.3c-4.5,0-7.9,1.2-10,3.5c-2.1,2.3-3.2,5.5-3.2,9.7h-8.5l-0.1-0.3
				C24.2,40.5,26.1,35.8,30,32c3.9-3.8,9.3-5.7,16.2-5.7c5.9,0,10.5,1.7,14,5.1c3.5,3.4,5.2,7.7,5.2,13c0,3.5-1.1,7.1-3.2,10.6
				c-2.1,3.6-5.1,7.4-8.9,11.5L36.2,85.1l0.1,0.2h31.4V92.2z"/>
			<path fill="none" stroke="#807175" stroke-width="2" d="M116.2,67.4c0,8.3-1.8,14.7-5.5,19.1c-3.7,4.4-8.8,6.6-15.2,6.6
				c-6.4,0-11.5-2.2-15.3-6.7c-3.7-4.4-5.6-10.8-5.6-19.1V52c0-8.3,1.9-14.6,5.6-19.1c3.7-4.4,8.8-6.7,15.2-6.7
				c6.4,0,11.5,2.2,15.2,6.7c3.7,4.5,5.6,10.8,5.6,19.1V67.4z M107.4,50.1c0-5.6-1-9.9-3.1-12.7c-2.1-2.8-5-4.3-8.9-4.3
				c-3.9,0-6.9,1.4-8.9,4.3c-2,2.8-3.1,7.1-3.1,12.7v19c0,5.6,1,9.9,3.1,12.7c2.1,2.9,5,4.3,8.9,4.3c3.9,0,6.8-1.4,8.9-4.3
				c2-2.9,3-7.1,3-12.8V50.1z"/>
			<path fill="none" stroke="#807175" stroke-width="2" d="M149.6,92.2h-8.8V35.8L127.4,36v-6.3l22.2-2.4V92.2z"/>
			<path fill="none" stroke="#807175" stroke-width="2" d="M191.5,86.2c4.3,0,7.8-1.6,10.4-4.9c2.6-3.2,3.9-8,3.9-14.4V64
				c-1.5,2.1-3.3,3.7-5.5,4.8s-4.6,1.6-7.3,1.6c-6.3,0-11.3-1.9-15-5.8c-3.7-3.9-5.6-9.2-5.6-16.1c0-6.5,2-11.9,5.9-16
				c3.9-4.2,8.7-6.3,14.4-6.3c6.8,0,12.2,2.1,16.1,6.4s5.9,10.5,5.9,18.7v15.5c0,8.5-2.1,15-6.4,19.5c-4.3,4.5-9.8,6.8-16.7,6.8
				c-2.3,0-4.6-0.2-7-0.7c-2.4-0.4-4.5-1.1-6.4-2l1.3-6.8c1.8,0.9,3.6,1.6,5.5,1.9C186.8,86.1,189,86.2,191.5,86.2z M192.9,63.5
				c3.3,0,6-0.7,8.2-2.1c2.2-1.4,3.7-3.2,4.7-5.4v-5.6c0-5.7-1.1-10-3.3-12.9c-2.2-2.9-5.4-4.4-9.6-4.4c-3.2,0-6,1.4-8.3,4.3
				c-2.3,2.9-3.4,6.5-3.4,11c0,4.5,1.1,8.1,3.2,10.8C186.4,62.1,189.2,63.5,192.9,63.5z"/>
		</g>
		<g display="inline">
			<path fill="#FFFFFF" d="M67.7,92.2H25.3v-6.1l21.4-23.6c3.8-4.3,6.4-7.6,7.8-10.1c1.4-2.5,2-5.1,2-7.7c0-3.2-1-6-2.9-8.2
				c-1.9-2.2-4.4-3.3-7.6-3.3c-4.5,0-7.9,1.2-10,3.5c-2.1,2.3-3.2,5.5-3.2,9.7h-8.5l-0.1-0.3C24.2,40.5,26.1,35.8,30,32
				c3.9-3.8,9.3-5.7,16.2-5.7c5.9,0,10.5,1.7,14,5.1c3.5,3.4,5.2,7.7,5.2,13c0,3.5-1.1,7.1-3.2,10.6c-2.1,3.6-5.1,7.4-8.9,11.5
				L36.2,85.1l0.1,0.2h31.4V92.2z"/>
			<path fill="#FFFFFF" d="M116.2,67.4c0,8.3-1.8,14.7-5.5,19.1c-3.7,4.4-8.8,6.6-15.2,6.6c-6.4,0-11.5-2.2-15.3-6.7
				c-3.7-4.4-5.6-10.8-5.6-19.1V52c0-8.3,1.9-14.6,5.6-19.1c3.7-4.4,8.8-6.7,15.2-6.7c6.4,0,11.5,2.2,15.2,6.7
				c3.7,4.5,5.6,10.8,5.6,19.1V67.4z M107.4,50.1c0-5.6-1-9.9-3.1-12.7c-2.1-2.8-5-4.3-8.9-4.3c-3.9,0-6.9,1.4-8.9,4.3
				c-2,2.8-3.1,7.1-3.1,12.7v19c0,5.6,1,9.9,3.1,12.7c2.1,2.9,5,4.3,8.9,4.3c3.9,0,6.8-1.4,8.9-4.3c2-2.9,3-7.1,3-12.8V50.1z"/>
			<path fill="#FFFFFF" d="M149.6,92.2h-8.8V35.8L127.4,36v-6.3l22.2-2.4V92.2z"/>
			<path fill="#FFFFFF" d="M191.5,86.2c4.3,0,7.8-1.6,10.4-4.9c2.6-3.2,3.9-8,3.9-14.4V64c-1.5,2.1-3.3,3.7-5.5,4.8
				s-4.6,1.6-7.3,1.6c-6.3,0-11.3-1.9-15-5.8c-3.7-3.9-5.6-9.2-5.6-16.1c0-6.5,2-11.9,5.9-16c3.9-4.2,8.7-6.3,14.4-6.3
				c6.8,0,12.2,2.1,16.1,6.4s5.9,10.5,5.9,18.7v15.5c0,8.5-2.1,15-6.4,19.5c-4.3,4.5-9.8,6.8-16.7,6.8c-2.3,0-4.6-0.2-7-0.7
				c-2.4-0.4-4.5-1.1-6.4-2l1.3-6.8c1.8,0.9,3.6,1.6,5.5,1.9C186.8,86.1,189,86.2,191.5,86.2z M192.9,63.5c3.3,0,6-0.7,8.2-2.1
				c2.2-1.4,3.7-3.2,4.7-5.4v-5.6c0-5.7-1.1-10-3.3-12.9c-2.2-2.9-5.4-4.4-9.6-4.4c-3.2,0-6,1.4-8.3,4.3c-2.3,2.9-3.4,6.5-3.4,11
				c0,4.5,1.1,8.1,3.2,10.8C186.4,62.1,189.2,63.5,192.9,63.5z"/>
		</g>
	</g>
</g>
</svg>
