<svg xmlns="http://www.w3.org/2000/svg" width="300" height="200"><path fill-rule="evenodd" clip-rule="evenodd" fill="#0080FF" d="M0 0h300v200H0z"/><path fill-rule="evenodd" clip-rule="evenodd" fill="#FFF" d="M300 120.8h-6.3l6.3-10.9V98.1l-1.6-2.8h-10.1l-14.7 25.5h-33l16.5-28.5h29.5l5-8.7-5-8.7h-19.4l11.1-19.2-5-8.7h-10.1l-11.1 19.2-9.8-16.7h-10l-5.1 8.7L242 83.6l-16.5 28.5L209 83.6l14.8-25.4-5.1-8.7h-10l-9.8 16.7L187.8 47h-10l-5.1 8.7 11.1 19.2h-19.4l-5 8.7 5 8.7h29.5l16.5 28.5h-33l-14.7-25.5h-10.1l-5 8.7 9.7 16.8H135l-5 8.7 5 8.7h22.3l-9.7 16.8 5 8.7h10.1l14.7-25.5h33l-16.5 28.5h-29.5l-5 8.7 5 8.7h19.4l-9.2 15.9h20.2l4.1-7.2 4.2 7.2h20.2L209 175.4l16.5-28.5 16.5 28.5-14.3 24.6h20.2l4.2-7.2 4.1 7.2h20.2l-9.2-15.9h19.4l5-8.7-5-8.7h-29.5l-16.5-28.5h33l14.7 25.5h10.1l1.6-2.8v-11.8l-6.3-10.9h6.3z" opacity=".502"/><g><text transform="matrix(1.006 0 0 1 20 92.221)" fill="#FFF" font-family="'Roboto-Regular'" font-size="91.436" letter-spacing="-2">2014</text><text transform="matrix(1.006 0 0 1 20 92.221)" fill="none" stroke="#807175" stroke-width="2" font-family="'Roboto-Regular'" font-size="91.436" letter-spacing="-2" opacity=".5">2014</text><text transform="matrix(1.006 0 0 1 20 92.221)" fill="#FFF" font-family="'Roboto-Regular'" font-size="91.436" letter-spacing="-2">2014</text></g></svg>