<svg xmlns="http://www.w3.org/2000/svg" width="300" height="200"><path fill="#FFAB57" d="M0 0h300v200H0z"/><path fill="#FFF" d="M300 91.5c-10.5.1-18.4 4.1-18.4 4.1s1.5-6.1-2.3-12.9c-10.6 1.5-27.2 18.2-29.4 22-2.3 3.8 11.3-26.6 6.8-41-7.5 0-19.6 5.3-19.6 5.3s0-28.1-13.6-38c-13.6 9.9-13.6 38-13.6 38s-12.1-5.3-19.6-5.3c-4.5 14.4 9.1 44.8 6.8 41-2.3-3.8-18.9-20.5-29.4-22-3.8 6.8-2.3 12.9-2.3 12.9s-10.6-5.3-23.4-3.8c.8 10.6 18.9 31.9 18.9 31.9s-6.8 0-13.6 4.6c3.8 11.4 27.9 22.8 27.9 22.8l-18.9 20.5s32.6 19.3 64.2 5.2c-.3 7.8-1.2 16.2-2.8 23.4h7.5c1.5-7.9 2.3-15.9 2.7-22.7 31.1 12.8 62.7-5.8 62.7-5.8l-18.9-20.5s24.2-11.4 27.9-22.8c-6.8-4.6-13.6-4.6-13.6-4.6s8.3-9.7 13.9-19.3v-13h.1z" opacity=".5"/><path d="M67.7 92.2H25.3v-6l21.4-23.7c3.9-4.2 6.5-7.6 7.8-10.1 1.4-2.5 2-5 2-7.7 0-3.2-.9-6-2.8-8.2a9.5 9.5 0 0 0-7.6-3.3c-4.5 0-7.8 1.2-10 3.5a13.7 13.7 0 0 0-3.2 9.7h-8.5V46A18.2 18.2 0 0 1 30 32c3.9-3.8 9.3-5.7 16.1-5.7 6 0 10.6 1.7 14 5 3.6 3.5 5.3 7.8 5.3 13.1 0 3.5-1 7.1-3.2 10.7-2 3.5-5 7.3-8.8 11.4L36.2 85.1v.2h31.5v7zm48.9-24.8a29 29 0 0 1-5.6 19.1 18.8 18.8 0 0 1-15.2 6.7 19 19 0 0 1-15.3-6.7 28.8 28.8 0 0 1-5.6-19V52a29 29 0 0 1 5.6-19c3.8-4.5 8.8-6.7 15.2-6.7 6.5 0 11.5 2.2 15.3 6.7a29 29 0 0 1 5.6 19v15.4zm-8.9-17.3c0-5.6-1-9.8-3-12.6-2.1-2.9-5-4.3-9-4.3s-6.8 1.4-8.9 4.3c-2 2.8-3 7-3 12.6v19.1c0 5.6 1 9.9 3 12.7 2.1 2.9 5.1 4.3 9 4.3 4 0 6.9-1.4 8.9-4.2 2-2.9 3-7.2 3-12.8v-19zm42.6 42.1h-8.8V35.8L128 36v-6.4l22.2-2.4v65zm27.2-29.3l3.7-35.7H214V35h-25.3l-2.1 18.3a17.1 17.1 0 0 1 10.5-3.6c6 0 10.7 1.9 14.2 5.8 3.4 4 5.2 9.3 5.2 16 0 6.5-1.8 11.8-5.3 15.7-3.5 4-8.7 6-15.4 6-5.5 0-10.2-1.5-13.8-4.6-3.7-3-5.5-7.4-5.3-13.2V75h8c0 3.5 1 6.3 3.1 8.2 2 2 4.7 3 8 3 3.7 0 6.6-1.4 8.7-4 2-2.6 3.1-6.2 3.1-10.7 0-4.2-1-7.6-3.1-10.3s-5-4-8.7-4c-3.5 0-6 .5-7.5 1.6a9 9 0 0 0-3.5 4.7l-7.3-.7z" fill="#FFF"/><path d="M67.7 92.2H25.3v-6l21.4-23.7c3.9-4.2 6.5-7.6 7.8-10.1 1.4-2.5 2-5 2-7.7 0-3.2-.9-6-2.8-8.2a9.5 9.5 0 0 0-7.6-3.3c-4.5 0-7.8 1.2-10 3.5a13.7 13.7 0 0 0-3.2 9.7h-8.5V46A18.2 18.2 0 0 1 30 32c3.9-3.8 9.3-5.7 16.1-5.7 6 0 10.6 1.7 14 5 3.6 3.5 5.3 7.8 5.3 13.1 0 3.5-1 7.1-3.2 10.7-2 3.5-5 7.3-8.8 11.4L36.2 85.1v.2h31.5v7zm48.9-24.8a29 29 0 0 1-5.6 19.1 18.8 18.8 0 0 1-15.2 6.7 19 19 0 0 1-15.3-6.7 28.8 28.8 0 0 1-5.6-19V52a29 29 0 0 1 5.6-19c3.8-4.5 8.8-6.7 15.2-6.7 6.5 0 11.5 2.2 15.3 6.7a29 29 0 0 1 5.6 19v15.4zm-8.9-17.3c0-5.6-1-9.8-3-12.6-2.1-2.9-5-4.3-9-4.3s-6.8 1.4-8.9 4.3c-2 2.8-3 7-3 12.6v19.1c0 5.6 1 9.9 3 12.7 2.1 2.9 5.1 4.3 9 4.3 4 0 6.9-1.4 8.9-4.2 2-2.9 3-7.2 3-12.8v-19zm42.6 42.1h-8.8V35.8L128 36v-6.4l22.2-2.4v65zm27.2-29.3l3.7-35.7H214V35h-25.3l-2.1 18.3a17.1 17.1 0 0 1 10.5-3.6c6 0 10.7 1.9 14.2 5.8 3.4 4 5.2 9.3 5.2 16 0 6.5-1.8 11.8-5.3 15.7-3.5 4-8.7 6-15.4 6-5.5 0-10.2-1.5-13.8-4.6-3.7-3-5.5-7.4-5.3-13.2V75h8c0 3.5 1 6.3 3.1 8.2 2 2 4.7 3 8 3 3.7 0 6.6-1.4 8.7-4 2-2.6 3.1-6.2 3.1-10.7 0-4.2-1-7.6-3.1-10.3s-5-4-8.7-4c-3.5 0-6 .5-7.5 1.6a9 9 0 0 0-3.5 4.7l-7.3-.7z" fill="none" stroke="#807175" stroke-width="2" opacity=".5"/><path d="M67.7 92.2H25.3v-6l21.4-23.7c3.9-4.2 6.5-7.6 7.8-10.1 1.4-2.5 2-5 2-7.7 0-3.2-.9-6-2.8-8.2a9.5 9.5 0 0 0-7.6-3.3c-4.5 0-7.8 1.2-10 3.5a13.7 13.7 0 0 0-3.2 9.7h-8.5V46A18.2 18.2 0 0 1 30 32c3.9-3.8 9.3-5.7 16.1-5.7 6 0 10.6 1.7 14 5 3.6 3.5 5.3 7.8 5.3 13.1 0 3.5-1 7.1-3.2 10.7-2 3.5-5 7.3-8.8 11.4L36.2 85.1v.2h31.5v7zm48.9-24.8a29 29 0 0 1-5.6 19.1 18.8 18.8 0 0 1-15.2 6.7 19 19 0 0 1-15.3-6.7 28.8 28.8 0 0 1-5.6-19V52a29 29 0 0 1 5.6-19c3.8-4.5 8.8-6.7 15.2-6.7 6.5 0 11.5 2.2 15.3 6.7a29 29 0 0 1 5.6 19v15.4zm-8.9-17.3c0-5.6-1-9.8-3-12.6-2.1-2.9-5-4.3-9-4.3s-6.8 1.4-8.9 4.3c-2 2.8-3 7-3 12.6v19.1c0 5.6 1 9.9 3 12.7 2.1 2.9 5.1 4.3 9 4.3 4 0 6.9-1.4 8.9-4.2 2-2.9 3-7.2 3-12.8v-19zm42.6 42.1h-8.8V35.8L128 36v-6.4l22.2-2.4v65zm27.2-29.3l3.7-35.7H214V35h-25.3l-2.1 18.3a17.1 17.1 0 0 1 10.5-3.6c6 0 10.7 1.9 14.2 5.8 3.4 4 5.2 9.3 5.2 16 0 6.5-1.8 11.8-5.3 15.7-3.5 4-8.7 6-15.4 6-5.5 0-10.2-1.5-13.8-4.6-3.7-3-5.5-7.4-5.3-13.2V75h8c0 3.5 1 6.3 3.1 8.2 2 2 4.7 3 8 3 3.7 0 6.6-1.4 8.7-4 2-2.6 3.1-6.2 3.1-10.7 0-4.2-1-7.6-3.1-10.3s-5-4-8.7-4c-3.5 0-6 .5-7.5 1.6a9 9 0 0 0-3.5 4.7l-7.3-.7z" fill="#FFF"/></svg>