<svg xmlns="http://www.w3.org/2000/svg" width="300" height="200"><path fill="#FF7FFF" d="M0 0h300v200H0z"/><path fill="#FFF" d="M225.7 125.6s4.4 56.4 9.3 74.4h31.4c2.1-3.4 3.2-6.7 6.5-9.3 4.7-3.9 10.1-2 16.6-5.4 6.5-3.4 14.5-16.8 7.8-24.8-6.8-8.1-71.6-34.9-71.6-34.9zm16.4-86.5c-7.2 1.1-10.4 5.1-16.6 5.4-6.1.4-9.4-4.3-16.6-5.4-7.2-1.1-21.6 5.1-20.9 15.5.7 10.5 37.4 70.3 37.4 70.3s36.7-59.9 37.4-70.3c.9-10.4-13.5-16.6-20.7-15.5zM281 67.8c-9.7 3.9-55.2 57.4-55.2 57.4s56.2 13.6 74.2 14.2v-62c-3.8-6.4-11.5-12.6-19-9.6zm-127.3 92.6c-6.7 8 1.3 21.5 7.8 24.8 6.5 3.4 11.4 2.1 16.6 5.4 3.6 2.3 4.6 5.7 6.6 9.3H216c4.9-18 9.3-74.4 9.3-74.4s-64.8 26.9-71.6 34.9zM170 67.8c-9.7-3.9-20 7.9-21.2 15.1-1.2 7.2 1.6 11.5 0 17.4-1.5 5.9-7 7.6-10.3 14.1-3.2 6.5-1.9 22.1 8.3 24.7 10.1 2.5 78.3-13.9 78.3-13.9S179.7 71.7 170 67.8z" opacity=".5"/><path d="M67.7 92.2H25.3v-6l21.4-23.7c3.9-4.2 6.5-7.6 7.8-10.1 1.4-2.5 2-5 2-7.7 0-3.2-.9-6-2.8-8.2a9.5 9.5 0 0 0-7.6-3.3c-4.5 0-7.8 1.2-10 3.5a13.7 13.7 0 0 0-3.2 9.7h-8.5V46A18.2 18.2 0 0 1 30 32c3.9-3.8 9.3-5.7 16.1-5.7 6 0 10.6 1.7 14 5 3.6 3.5 5.3 7.8 5.3 13.1 0 3.5-1 7.1-3.2 10.7-2 3.5-5 7.3-8.8 11.4L36.2 85.1v.2h31.5v7zm48.9-24.8a29 29 0 0 1-5.6 19.1 18.8 18.8 0 0 1-15.2 6.7 19 19 0 0 1-15.3-6.7 28.8 28.8 0 0 1-5.6-19V52a29 29 0 0 1 5.6-19c3.8-4.5 8.8-6.7 15.2-6.7 6.5 0 11.5 2.2 15.3 6.7a29 29 0 0 1 5.6 19v15.4zm-8.9-17.3c0-5.6-1-9.8-3-12.6-2.1-2.9-5-4.3-9-4.3s-6.8 1.4-8.9 4.3c-2 2.8-3 7-3 12.6v19.1c0 5.6 1 9.9 3 12.7 2.1 2.9 5.1 4.3 9 4.3 4 0 6.9-1.4 8.9-4.2 2-2.9 3-7.2 3-12.8v-19zm42.6 42.1h-8.8V35.8L128 36v-6.4l22.2-2.4v65zM200 26.3a29.7 29.7 0 0 1 12 2.7l-1.8 6.7a20.5 20.5 0 0 0-10.2-2.5c-4.7 0-8.5 1.9-11.4 5.6s-4.3 8.6-4.3 14.5v1A21.6 21.6 0 0 1 199 49c5.8 0 10.5 2 14 6 3.4 4 5.2 9.2 5.2 15.3 0 6.8-1.9 12.3-5.6 16.5a18.7 18.7 0 0 1-14.8 6.4c-6.4 0-11.7-2.3-15.9-7a28 28 0 0 1-6.3-19.5V54.3c0-8.3 2.4-15 7-20.3a22.5 22.5 0 0 1 17.4-7.7zm-3 29.3c-3.1 0-5.7.6-7.8 1.8a12.4 12.4 0 0 0-4.9 4.9v5.3a22 22 0 0 0 3.9 13.8c2.5 3.2 5.7 4.8 9.5 4.8 3.6 0 6.5-1.5 8.5-4.5s3-6.9 3-11.4c0-4.3-1-7.8-3.2-10.5a10.9 10.9 0 0 0-9-4.2z" fill="#FFF"/><path d="M67.7 92.2H25.3v-6l21.4-23.7c3.9-4.2 6.5-7.6 7.8-10.1 1.4-2.5 2-5 2-7.7 0-3.2-.9-6-2.8-8.2a9.5 9.5 0 0 0-7.6-3.3c-4.5 0-7.8 1.2-10 3.5a13.7 13.7 0 0 0-3.2 9.7h-8.5V46A18.2 18.2 0 0 1 30 32c3.9-3.8 9.3-5.7 16.1-5.7 6 0 10.6 1.7 14 5 3.6 3.5 5.3 7.8 5.3 13.1 0 3.5-1 7.1-3.2 10.7-2 3.5-5 7.3-8.8 11.4L36.2 85.1v.2h31.5v7zm48.9-24.8a29 29 0 0 1-5.6 19.1 18.8 18.8 0 0 1-15.2 6.7 19 19 0 0 1-15.3-6.7 28.8 28.8 0 0 1-5.6-19V52a29 29 0 0 1 5.6-19c3.8-4.5 8.8-6.7 15.2-6.7 6.5 0 11.5 2.2 15.3 6.7a29 29 0 0 1 5.6 19v15.4zm-8.9-17.3c0-5.6-1-9.8-3-12.6-2.1-2.9-5-4.3-9-4.3s-6.8 1.4-8.9 4.3c-2 2.8-3 7-3 12.6v19.1c0 5.6 1 9.9 3 12.7 2.1 2.9 5.1 4.3 9 4.3 4 0 6.9-1.4 8.9-4.2 2-2.9 3-7.2 3-12.8v-19zm42.6 42.1h-8.8V35.8L128 36v-6.4l22.2-2.4v65zM200 26.3a29.7 29.7 0 0 1 12 2.7l-1.8 6.7a20.5 20.5 0 0 0-10.2-2.5c-4.7 0-8.5 1.9-11.4 5.6s-4.3 8.6-4.3 14.5v1A21.6 21.6 0 0 1 199 49c5.8 0 10.5 2 14 6 3.4 4 5.2 9.2 5.2 15.3 0 6.8-1.9 12.3-5.6 16.5a18.7 18.7 0 0 1-14.8 6.4c-6.4 0-11.7-2.3-15.9-7a28 28 0 0 1-6.3-19.5V54.3c0-8.3 2.4-15 7-20.3a22.5 22.5 0 0 1 17.4-7.7zm-3 29.3c-3.1 0-5.7.6-7.8 1.8a12.4 12.4 0 0 0-4.9 4.9v5.3a22 22 0 0 0 3.9 13.8c2.5 3.2 5.7 4.8 9.5 4.8 3.6 0 6.5-1.5 8.5-4.5s3-6.9 3-11.4c0-4.3-1-7.8-3.2-10.5a10.9 10.9 0 0 0-9-4.2z" fill="none" stroke="#807175" stroke-width="2" opacity=".5"/><path d="M67.7 92.2H25.3v-6l21.4-23.7c3.9-4.2 6.5-7.6 7.8-10.1 1.4-2.5 2-5 2-7.7 0-3.2-.9-6-2.8-8.2a9.5 9.5 0 0 0-7.6-3.3c-4.5 0-7.8 1.2-10 3.5a13.7 13.7 0 0 0-3.2 9.7h-8.5V46A18.2 18.2 0 0 1 30 32c3.9-3.8 9.3-5.7 16.1-5.7 6 0 10.6 1.7 14 5 3.6 3.5 5.3 7.8 5.3 13.1 0 3.5-1 7.1-3.2 10.7-2 3.5-5 7.3-8.8 11.4L36.2 85.1v.2h31.5v7zm48.9-24.8a29 29 0 0 1-5.6 19.1 18.8 18.8 0 0 1-15.2 6.7 19 19 0 0 1-15.3-6.7 28.8 28.8 0 0 1-5.6-19V52a29 29 0 0 1 5.6-19c3.8-4.5 8.8-6.7 15.2-6.7 6.5 0 11.5 2.2 15.3 6.7a29 29 0 0 1 5.6 19v15.4zm-8.9-17.3c0-5.6-1-9.8-3-12.6-2.1-2.9-5-4.3-9-4.3s-6.8 1.4-8.9 4.3c-2 2.8-3 7-3 12.6v19.1c0 5.6 1 9.9 3 12.7 2.1 2.9 5.1 4.3 9 4.3 4 0 6.9-1.4 8.9-4.2 2-2.9 3-7.2 3-12.8v-19zm42.6 42.1h-8.8V35.8L128 36v-6.4l22.2-2.4v65zM200 26.3a29.7 29.7 0 0 1 12 2.7l-1.8 6.7a20.5 20.5 0 0 0-10.2-2.5c-4.7 0-8.5 1.9-11.4 5.6s-4.3 8.6-4.3 14.5v1A21.6 21.6 0 0 1 199 49c5.8 0 10.5 2 14 6 3.4 4 5.2 9.2 5.2 15.3 0 6.8-1.9 12.3-5.6 16.5a18.7 18.7 0 0 1-14.8 6.4c-6.4 0-11.7-2.3-15.9-7a28 28 0 0 1-6.3-19.5V54.3c0-8.3 2.4-15 7-20.3a22.5 22.5 0 0 1 17.4-7.7zm-3 29.3c-3.1 0-5.7.6-7.8 1.8a12.4 12.4 0 0 0-4.9 4.9v5.3a22 22 0 0 0 3.9 13.8c2.5 3.2 5.7 4.8 9.5 4.8 3.6 0 6.5-1.5 8.5-4.5s3-6.9 3-11.4c0-4.3-1-7.8-3.2-10.5a10.9 10.9 0 0 0-9-4.2z" fill="#FFF"/></svg>