<svg xmlns="http://www.w3.org/2000/svg" width="300" height="200"><path fill="#FFAB57" d="M0 0h300v200H0z"/><path fill="#FFF" d="M300 91.5c-10.5.1-18.4 4.1-18.4 4.1s1.5-6.1-2.3-12.9c-10.6 1.5-27.2 18.2-29.399 22-2.301 3.8 11.3-26.6 6.8-41-7.5 0-19.601 5.3-19.601 5.3s0-28.1-13.6-38c-13.6 9.9-13.6 38-13.6 38s-12.1-5.3-19.6-5.3c-4.5 14.4 9.101 44.8 6.8 41-2.3-3.8-18.899-20.5-29.399-22-3.8 6.8-2.3 12.9-2.3 12.9S154.8 90.3 142 91.8c.8 10.601 18.9 31.9 18.9 31.9s-6.801 0-13.601 4.6c3.8 11.4 27.9 22.8 27.9 22.8l-18.9 20.5s32.601 19.301 64.2 5.2c-.3 7.8-1.2 16.2-2.8 23.4h7.5c1.5-7.9 2.3-15.9 2.7-22.7 31.1 12.8 62.699-5.8 62.699-5.8L271.7 151.2s24.2-11.4 27.899-22.8C292.8 123.8 286 123.8 286 123.8s8.3-9.7 13.9-19.3v-13h.1z" opacity=".502"/><g><g fill="#FFF"><path d="M67.7 92.221H25.3v-6.066l21.424-23.624c3.833-4.256 6.43-7.635 7.793-10.135 1.362-2.5 2.043-5.06 2.043-7.679 0-3.244-.951-5.975-2.852-8.193-1.902-2.217-4.424-3.326-7.568-3.326-4.521 0-7.853 1.154-9.993 3.46-2.141 2.307-3.211 5.544-3.211 9.711h-8.489l-.09-.268c-.15-5.595 1.721-10.298 5.614-14.108 3.892-3.81 9.282-5.715 16.169-5.715 5.869 0 10.547 1.705 14.036 5.112 3.488 3.408 5.232 7.746 5.232 13.015 0 3.542-1.056 7.092-3.167 10.648-2.111 3.557-5.068 7.375-8.871 11.452l-17.2 18.573.09.222H67.7v6.921zM116.567 67.442c0 8.304-1.85 14.667-5.547 19.086-3.698 4.42-8.766 6.63-15.204 6.63-6.438 0-11.528-2.217-15.271-6.652-3.743-4.435-5.614-10.789-5.614-19.064V52.039c0-8.274 1.864-14.636 5.592-19.086 3.728-4.449 8.796-6.675 15.204-6.675 6.438 0 11.521 2.226 15.249 6.675 3.728 4.45 5.592 10.812 5.592 19.086v15.403zm-8.849-17.293c0-5.621-1.026-9.851-3.077-12.691s-5.023-4.26-8.916-4.26-6.857 1.42-8.893 4.26c-2.037 2.841-3.054 7.071-3.054 12.691v19.048c0 5.621 1.033 9.865 3.099 12.735 2.066 2.87 5.045 4.305 8.938 4.305 3.892 0 6.85-1.428 8.871-4.283 2.021-2.854 3.032-7.107 3.032-12.758V50.149zM150.342 92.221h-8.848V35.787l-13.385.179v-6.34l22.233-2.411v65.006zM199.928 26.277c2.245 0 4.469.253 6.67.759 2.2.506 4.02 1.146 5.457 1.919l-1.887 6.742a26.241 26.241 0 0 0-4.604-1.808c-1.603-.461-3.481-.692-5.637-.692-4.672 0-8.438 1.86-11.297 5.581s-4.289 8.572-4.289 14.555v1.027c1.916-1.667 4.109-2.969 6.58-3.907s5.127-1.406 7.973-1.406c5.838 0 10.494 2.009 13.969 6.027 3.473 4.018 5.209 9.108 5.209 15.269 0 6.727-1.849 12.211-5.547 16.452-3.698 4.242-8.631 6.362-14.799 6.362-6.408 0-11.708-2.306-15.9-6.92-4.191-4.613-6.287-11.117-6.287-19.511V54.315c0-8.333 2.335-15.09 7.006-20.27 4.672-5.178 10.465-7.768 17.383-7.768zm-3.01 29.333c-3.025 0-5.6.61-7.725 1.828-2.127 1.219-3.744 2.839-4.852 4.86v5.26c0 5.975 1.272 10.581 3.818 13.82 2.544 3.24 5.732 4.86 9.566 4.86 3.623 0 6.445-1.523 8.467-4.569 2.021-3.047 3.031-6.829 3.031-11.347 0-4.279-1.086-7.801-3.256-10.565-2.17-2.764-5.186-4.147-9.049-4.147z"/></g><g fill="none" stroke="#807175" stroke-width="2" opacity=".5"><path d="M67.7 92.221H25.3v-6.066l21.424-23.624c3.833-4.256 6.43-7.635 7.793-10.135 1.362-2.5 2.043-5.06 2.043-7.679 0-3.244-.951-5.975-2.852-8.193-1.902-2.217-4.424-3.326-7.568-3.326-4.521 0-7.853 1.154-9.993 3.46-2.141 2.307-3.211 5.544-3.211 9.711h-8.489l-.09-.268c-.15-5.595 1.721-10.298 5.614-14.108 3.892-3.81 9.282-5.715 16.169-5.715 5.869 0 10.547 1.705 14.036 5.112 3.488 3.408 5.232 7.746 5.232 13.015 0 3.542-1.056 7.092-3.167 10.648-2.111 3.557-5.068 7.375-8.871 11.452l-17.2 18.573.09.222H67.7v6.921zM116.567 67.442c0 8.304-1.85 14.667-5.547 19.086-3.698 4.42-8.766 6.63-15.204 6.63-6.438 0-11.528-2.217-15.271-6.652-3.743-4.435-5.614-10.789-5.614-19.064V52.039c0-8.274 1.864-14.636 5.592-19.086 3.728-4.449 8.796-6.675 15.204-6.675 6.438 0 11.521 2.226 15.249 6.675 3.728 4.45 5.592 10.812 5.592 19.086v15.403zm-8.849-17.293c0-5.621-1.026-9.851-3.077-12.691s-5.023-4.26-8.916-4.26-6.857 1.42-8.893 4.26c-2.037 2.841-3.054 7.071-3.054 12.691v19.048c0 5.621 1.033 9.865 3.099 12.735 2.066 2.87 5.045 4.305 8.938 4.305 3.892 0 6.85-1.428 8.871-4.283 2.021-2.854 3.032-7.107 3.032-12.758V50.149zM150.342 92.221h-8.848V35.787l-13.385.179v-6.34l22.233-2.411v65.006zM199.928 26.277c2.245 0 4.469.253 6.67.759 2.2.506 4.02 1.146 5.457 1.919l-1.887 6.742a26.241 26.241 0 0 0-4.604-1.808c-1.603-.461-3.481-.692-5.637-.692-4.672 0-8.438 1.86-11.297 5.581s-4.289 8.572-4.289 14.555v1.027c1.916-1.667 4.109-2.969 6.58-3.907s5.127-1.406 7.973-1.406c5.838 0 10.494 2.009 13.969 6.027 3.473 4.018 5.209 9.108 5.209 15.269 0 6.727-1.849 12.211-5.547 16.452-3.698 4.242-8.631 6.362-14.799 6.362-6.408 0-11.708-2.306-15.9-6.92-4.191-4.613-6.287-11.117-6.287-19.511V54.315c0-8.333 2.335-15.09 7.006-20.27 4.672-5.178 10.465-7.768 17.383-7.768zm-3.01 29.333c-3.025 0-5.6.61-7.725 1.828-2.127 1.219-3.744 2.839-4.852 4.86v5.26c0 5.975 1.272 10.581 3.818 13.82 2.544 3.24 5.732 4.86 9.566 4.86 3.623 0 6.445-1.523 8.467-4.569 2.021-3.047 3.031-6.829 3.031-11.347 0-4.279-1.086-7.801-3.256-10.565-2.17-2.764-5.186-4.147-9.049-4.147z"/></g><g fill="#FFF"><path d="M67.7 92.221H25.3v-6.066l21.424-23.624c3.833-4.256 6.43-7.635 7.793-10.135 1.362-2.5 2.043-5.06 2.043-7.679 0-3.244-.951-5.975-2.852-8.193-1.902-2.217-4.424-3.326-7.568-3.326-4.521 0-7.853 1.154-9.993 3.46-2.141 2.307-3.211 5.544-3.211 9.711h-8.489l-.09-.268c-.15-5.595 1.721-10.298 5.614-14.108 3.892-3.81 9.282-5.715 16.169-5.715 5.869 0 10.547 1.705 14.036 5.112 3.488 3.408 5.232 7.746 5.232 13.015 0 3.542-1.056 7.092-3.167 10.648-2.111 3.557-5.068 7.375-8.871 11.452l-17.2 18.573.09.222H67.7v6.921zM116.567 67.442c0 8.304-1.85 14.667-5.547 19.086-3.698 4.42-8.766 6.63-15.204 6.63-6.438 0-11.528-2.217-15.271-6.652-3.743-4.435-5.614-10.789-5.614-19.064V52.039c0-8.274 1.864-14.636 5.592-19.086 3.728-4.449 8.796-6.675 15.204-6.675 6.438 0 11.521 2.226 15.249 6.675 3.728 4.45 5.592 10.812 5.592 19.086v15.403zm-8.849-17.293c0-5.621-1.026-9.851-3.077-12.691s-5.023-4.26-8.916-4.26-6.857 1.42-8.893 4.26c-2.037 2.841-3.054 7.071-3.054 12.691v19.048c0 5.621 1.033 9.865 3.099 12.735 2.066 2.87 5.045 4.305 8.938 4.305 3.892 0 6.85-1.428 8.871-4.283 2.021-2.854 3.032-7.107 3.032-12.758V50.149zM150.342 92.221h-8.848V35.787l-13.385.179v-6.34l22.233-2.411v65.006zM199.928 26.277c2.245 0 4.469.253 6.67.759 2.2.506 4.02 1.146 5.457 1.919l-1.887 6.742a26.241 26.241 0 0 0-4.604-1.808c-1.603-.461-3.481-.692-5.637-.692-4.672 0-8.438 1.86-11.297 5.581s-4.289 8.572-4.289 14.555v1.027c1.916-1.667 4.109-2.969 6.58-3.907s5.127-1.406 7.973-1.406c5.838 0 10.494 2.009 13.969 6.027 3.473 4.018 5.209 9.108 5.209 15.269 0 6.727-1.849 12.211-5.547 16.452-3.698 4.242-8.631 6.362-14.799 6.362-6.408 0-11.708-2.306-15.9-6.92-4.191-4.613-6.287-11.117-6.287-19.511V54.315c0-8.333 2.335-15.09 7.006-20.27 4.672-5.178 10.465-7.768 17.383-7.768zm-3.01 29.333c-3.025 0-5.6.61-7.725 1.828-2.127 1.219-3.744 2.839-4.852 4.86v5.26c0 5.975 1.272 10.581 3.818 13.82 2.544 3.24 5.732 4.86 9.566 4.86 3.623 0 6.445-1.523 8.467-4.569 2.021-3.047 3.031-6.829 3.031-11.347 0-4.279-1.086-7.801-3.256-10.565-2.17-2.764-5.186-4.147-9.049-4.147z"/></g></g></svg>