<svg xmlns="http://www.w3.org/2000/svg" width="300" height="200"><path fill-rule="evenodd" clip-rule="evenodd" fill="#FF7FFF" d="M0 0h300v200H0z"/><path fill-rule="evenodd" clip-rule="evenodd" fill="#FFF" d="M225.7 125.6s4.4 56.4 9.3 74.4h31.4c2.1-3.4 3.2-6.7 6.5-9.3 4.7-3.9 10.1-2 16.6-5.4 6.5-3.4 14.5-16.8 7.8-24.8-6.8-8.1-71.6-34.9-71.6-34.9zm16.4-86.5c-7.2 1.1-10.4 5.1-16.6 5.4-6.1.4-9.4-4.3-16.6-5.4-7.2-1.1-21.6 5.1-20.9 15.5.7 10.5 37.4 70.3 37.4 70.3s36.7-59.9 37.4-70.3c.9-10.4-13.5-16.6-20.7-15.5zM281 67.8c-9.7 3.9-55.2 57.4-55.2 57.4s56.2 13.6 74.2 14.2v-62c-3.8-6.4-11.5-12.6-19-9.6zm-127.3 92.6c-6.7 8 1.3 21.5 7.8 24.8 6.5 3.4 11.4 2.1 16.6 5.4 3.6 2.3 4.6 5.7 6.6 9.3H216c4.9-18 9.3-74.4 9.3-74.4s-64.8 26.9-71.6 34.9zM170 67.8c-9.7-3.9-20 7.9-21.2 15.1-1.2 7.2 1.6 11.5 0 17.4-1.5 5.9-7 7.6-10.3 14.1-3.2 6.5-1.9 22.1 8.3 24.7 10.1 2.5 78.3-13.9 78.3-13.9S179.7 71.7 170 67.8z" opacity=".502"/><path d="M67.7 92.2H25.3v-6.1l21.4-23.6c3.8-4.3 6.4-7.6 7.8-10.1 1.4-2.5 2-5.1 2-7.7 0-3.2-1-6-2.9-8.2-1.9-2.2-4.4-3.3-7.6-3.3-4.5 0-7.9 1.2-10 3.5-2.1 2.3-3.2 5.5-3.2 9.7h-8.5l-.1-.3c0-5.6 1.9-10.3 5.8-14.1 3.9-3.8 9.3-5.7 16.2-5.7 5.9 0 10.5 1.7 14 5.1 3.5 3.4 5.2 7.7 5.2 13 0 3.5-1.1 7.1-3.2 10.6-2.1 3.6-5.1 7.4-8.9 11.5L36.2 85.1l.1.2h31.4v6.9zm48.5-24.8c0 8.3-1.8 14.7-5.5 19.1-3.7 4.4-8.8 6.6-15.2 6.6-6.4 0-11.5-2.2-15.3-6.7-3.7-4.4-5.6-10.8-5.6-19.1V52c0-8.3 1.9-14.6 5.6-19.1 3.7-4.4 8.8-6.7 15.2-6.7 6.4 0 11.5 2.2 15.2 6.7 3.7 4.5 5.6 10.8 5.6 19.1v15.4zm-8.8-17.3c0-5.6-1-9.9-3.1-12.7-2.1-2.8-5-4.3-8.9-4.3s-6.9 1.4-8.9 4.3c-2 2.8-3.1 7.1-3.1 12.7v19c0 5.6 1 9.9 3.1 12.7 2.1 2.9 5 4.3 8.9 4.3s6.9-1.4 8.9-4.3 3-7.1 3-12.8V50.1zm42.2 42.1h-8.8V35.8l-13.4.2v-6.3l22.2-2.4v64.9zm66.6-58.1c-7.9 9.3-13.2 17.6-16 24.8-2.8 7.2-4.8 16-6 26.2l-.7 7h-8.8l.7-7c1.3-10.2 3.7-19.4 7.3-27.5 3.6-8.1 8.6-15.9 14.9-23.6H172v-6.9h44.2v7z" fill="#FFF"/><path d="M67.7 92.2H25.3v-6.1l21.4-23.6c3.8-4.3 6.4-7.6 7.8-10.1 1.4-2.5 2-5.1 2-7.7 0-3.2-1-6-2.9-8.2-1.9-2.2-4.4-3.3-7.6-3.3-4.5 0-7.9 1.2-10 3.5-2.1 2.3-3.2 5.5-3.2 9.7h-8.5l-.1-.3c0-5.6 1.9-10.3 5.8-14.1 3.9-3.8 9.3-5.7 16.2-5.7 5.9 0 10.5 1.7 14 5.1 3.5 3.4 5.2 7.7 5.2 13 0 3.5-1.1 7.1-3.2 10.6-2.1 3.6-5.1 7.4-8.9 11.5L36.2 85.1l.1.2h31.4v6.9zm48.5-24.8c0 8.3-1.8 14.7-5.5 19.1-3.7 4.4-8.8 6.6-15.2 6.6-6.4 0-11.5-2.2-15.3-6.7-3.7-4.4-5.6-10.8-5.6-19.1V52c0-8.3 1.9-14.6 5.6-19.1 3.7-4.4 8.8-6.7 15.2-6.7 6.4 0 11.5 2.2 15.2 6.7 3.7 4.5 5.6 10.8 5.6 19.1v15.4zm-8.8-17.3c0-5.6-1-9.9-3.1-12.7-2.1-2.8-5-4.3-8.9-4.3s-6.9 1.4-8.9 4.3c-2 2.8-3.1 7.1-3.1 12.7v19c0 5.6 1 9.9 3.1 12.7 2.1 2.9 5 4.3 8.9 4.3s6.9-1.4 8.9-4.3 3-7.1 3-12.8V50.1zm42.2 42.1h-8.8V35.8l-13.4.2v-6.3l22.2-2.4v64.9zm66.6-58.1c-7.9 9.3-13.2 17.6-16 24.8-2.8 7.2-4.8 16-6 26.2l-.7 7h-8.8l.7-7c1.3-10.2 3.7-19.4 7.3-27.5 3.6-8.1 8.6-15.9 14.9-23.6H172v-6.9h44.2v7z" opacity=".5" fill="none" stroke="#807175" stroke-width="2"/><path d="M67.7 92.2H25.3v-6.1l21.4-23.6c3.8-4.3 6.4-7.6 7.8-10.1 1.4-2.5 2-5.1 2-7.7 0-3.2-1-6-2.9-8.2-1.9-2.2-4.4-3.3-7.6-3.3-4.5 0-7.9 1.2-10 3.5-2.1 2.3-3.2 5.5-3.2 9.7h-8.5l-.1-.3c0-5.6 1.9-10.3 5.8-14.1 3.9-3.8 9.3-5.7 16.2-5.7 5.9 0 10.5 1.7 14 5.1 3.5 3.4 5.2 7.7 5.2 13 0 3.5-1.1 7.1-3.2 10.6-2.1 3.6-5.1 7.4-8.9 11.5L36.2 85.1l.1.2h31.4v6.9zm48.5-24.8c0 8.3-1.8 14.7-5.5 19.1-3.7 4.4-8.8 6.6-15.2 6.6-6.4 0-11.5-2.2-15.3-6.7-3.7-4.4-5.6-10.8-5.6-19.1V52c0-8.3 1.9-14.6 5.6-19.1 3.7-4.4 8.8-6.7 15.2-6.7 6.4 0 11.5 2.2 15.2 6.7 3.7 4.5 5.6 10.8 5.6 19.1v15.4zm-8.8-17.3c0-5.6-1-9.9-3.1-12.7-2.1-2.8-5-4.3-8.9-4.3s-6.9 1.4-8.9 4.3c-2 2.8-3.1 7.1-3.1 12.7v19c0 5.6 1 9.9 3.1 12.7 2.1 2.9 5 4.3 8.9 4.3s6.9-1.4 8.9-4.3 3-7.1 3-12.8V50.1zm42.2 42.1h-8.8V35.8l-13.4.2v-6.3l22.2-2.4v64.9zm66.6-58.1c-7.9 9.3-13.2 17.6-16 24.8-2.8 7.2-4.8 16-6 26.2l-.7 7h-8.8l.7-7c1.3-10.2 3.7-19.4 7.3-27.5 3.6-8.1 8.6-15.9 14.9-23.6H172v-6.9h44.2v7z" fill="#FFF"/></svg>