<svg xmlns="http://www.w3.org/2000/svg" width="300" height="200"><path fill-rule="evenodd" clip-rule="evenodd" fill="#C2E617" d="M0 0h300v200H0z"/><path fill-rule="evenodd" clip-rule="evenodd" fill="#FFF" d="M231.7 94.2L223.5 39l-8.2 55.2c2.6-.7 5.3-1 8.2-1 2.8-.1 5.6.3 8.2 1zm19.7 14.9l33.3-44.8-44.8 33.3c4.7 2.8 8.7 6.8 11.5 11.5zm-44.3-11.5l-44.8-33.3 33.3 44.8c2.8-4.7 6.8-8.7 11.5-11.5zM310 125.5l-55.2-8.2c.7 2.6 1 5.3 1 8.2s-.4 5.6-1 8.2l55.2-8.2zm-86.5-26.6c-14.7 0-26.6 11.9-26.6 26.6s11.9 26.6 26.6 26.6 26.6-11.9 26.6-26.6-11.9-26.6-26.6-26.6zm-32.3 26.6c0-2.8.4-5.6 1-8.2l-55.2 8.2 55.2 8.2c-.7-2.6-1-5.4-1-8.2zm48.7 27.9l44.8 33.3-33.3-44.8c-2.8 4.7-6.8 8.7-11.5 11.5zm-24.6 3.4l8.2 55.2 8.2-55.2c-2.6.7-5.3 1-8.2 1-2.8 0-5.6-.3-8.2-1zm-19.7-14.9l-33.3 44.8 44.8-33.3c-4.7-2.8-8.7-6.8-11.5-11.5z" opacity=".502"/><path d="M67.7 92.2H25.3v-6.1l21.4-23.6c3.8-4.3 6.4-7.6 7.8-10.1 1.4-2.5 2-5.1 2-7.7 0-3.2-1-6-2.9-8.2-1.9-2.2-4.4-3.3-7.6-3.3-4.5 0-7.9 1.2-10 3.5-2.1 2.3-3.2 5.5-3.2 9.7h-8.5l-.1-.3c0-5.6 1.9-10.3 5.8-14.1 3.9-3.8 9.3-5.7 16.2-5.7 5.9 0 10.5 1.7 14 5.1 3.5 3.4 5.2 7.7 5.2 13 0 3.5-1.1 7.1-3.2 10.6-2.1 3.6-5.1 7.4-8.9 11.5L36.2 85.1l.1.2h31.4v6.9zm48.5-24.8c0 8.3-1.8 14.7-5.5 19.1-3.7 4.4-8.8 6.6-15.2 6.6-6.4 0-11.5-2.2-15.3-6.7-3.7-4.4-5.6-10.8-5.6-19.1V52c0-8.3 1.9-14.6 5.6-19.1 3.7-4.4 8.8-6.7 15.2-6.7 6.4 0 11.5 2.2 15.2 6.7 3.7 4.5 5.6 10.8 5.6 19.1v15.4zm-8.8-17.3c0-5.6-1-9.9-3.1-12.7-2.1-2.8-5-4.3-8.9-4.3s-6.9 1.4-8.9 4.3c-2 2.8-3.1 7.1-3.1 12.7v19c0 5.6 1 9.9 3.1 12.7 2.1 2.9 5 4.3 8.9 4.3s6.9-1.4 8.9-4.3 3-7.1 3-12.8V50.1zm42.2 42.1h-8.8V35.8l-13.4.2v-6.3l22.2-2.4v64.9zm66.6-58.1c-7.9 9.3-13.2 17.6-16 24.8-2.8 7.2-4.8 16-6 26.2l-.7 7h-8.8l.7-7c1.3-10.2 3.7-19.4 7.3-27.5 3.6-8.1 8.6-15.9 14.9-23.6H172v-6.9h44.2v7z" fill="#FFF"/><path d="M67.7 92.2H25.3v-6.1l21.4-23.6c3.8-4.3 6.4-7.6 7.8-10.1 1.4-2.5 2-5.1 2-7.7 0-3.2-1-6-2.9-8.2-1.9-2.2-4.4-3.3-7.6-3.3-4.5 0-7.9 1.2-10 3.5-2.1 2.3-3.2 5.5-3.2 9.7h-8.5l-.1-.3c0-5.6 1.9-10.3 5.8-14.1 3.9-3.8 9.3-5.7 16.2-5.7 5.9 0 10.5 1.7 14 5.1 3.5 3.4 5.2 7.7 5.2 13 0 3.5-1.1 7.1-3.2 10.6-2.1 3.6-5.1 7.4-8.9 11.5L36.2 85.1l.1.2h31.4v6.9zm48.5-24.8c0 8.3-1.8 14.7-5.5 19.1-3.7 4.4-8.8 6.6-15.2 6.6-6.4 0-11.5-2.2-15.3-6.7-3.7-4.4-5.6-10.8-5.6-19.1V52c0-8.3 1.9-14.6 5.6-19.1 3.7-4.4 8.8-6.7 15.2-6.7 6.4 0 11.5 2.2 15.2 6.7 3.7 4.5 5.6 10.8 5.6 19.1v15.4zm-8.8-17.3c0-5.6-1-9.9-3.1-12.7-2.1-2.8-5-4.3-8.9-4.3s-6.9 1.4-8.9 4.3c-2 2.8-3.1 7.1-3.1 12.7v19c0 5.6 1 9.9 3.1 12.7 2.1 2.9 5 4.3 8.9 4.3s6.9-1.4 8.9-4.3 3-7.1 3-12.8V50.1zm42.2 42.1h-8.8V35.8l-13.4.2v-6.3l22.2-2.4v64.9zm66.6-58.1c-7.9 9.3-13.2 17.6-16 24.8-2.8 7.2-4.8 16-6 26.2l-.7 7h-8.8l.7-7c1.3-10.2 3.7-19.4 7.3-27.5 3.6-8.1 8.6-15.9 14.9-23.6H172v-6.9h44.2v7z" opacity=".5" fill="none" stroke="#807175" stroke-width="2"/><path d="M67.7 92.2H25.3v-6.1l21.4-23.6c3.8-4.3 6.4-7.6 7.8-10.1 1.4-2.5 2-5.1 2-7.7 0-3.2-1-6-2.9-8.2-1.9-2.2-4.4-3.3-7.6-3.3-4.5 0-7.9 1.2-10 3.5-2.1 2.3-3.2 5.5-3.2 9.7h-8.5l-.1-.3c0-5.6 1.9-10.3 5.8-14.1 3.9-3.8 9.3-5.7 16.2-5.7 5.9 0 10.5 1.7 14 5.1 3.5 3.4 5.2 7.7 5.2 13 0 3.5-1.1 7.1-3.2 10.6-2.1 3.6-5.1 7.4-8.9 11.5L36.2 85.1l.1.2h31.4v6.9zm48.5-24.8c0 8.3-1.8 14.7-5.5 19.1-3.7 4.4-8.8 6.6-15.2 6.6-6.4 0-11.5-2.2-15.3-6.7-3.7-4.4-5.6-10.8-5.6-19.1V52c0-8.3 1.9-14.6 5.6-19.1 3.7-4.4 8.8-6.7 15.2-6.7 6.4 0 11.5 2.2 15.2 6.7 3.7 4.5 5.6 10.8 5.6 19.1v15.4zm-8.8-17.3c0-5.6-1-9.9-3.1-12.7-2.1-2.8-5-4.3-8.9-4.3s-6.9 1.4-8.9 4.3c-2 2.8-3.1 7.1-3.1 12.7v19c0 5.6 1 9.9 3.1 12.7 2.1 2.9 5 4.3 8.9 4.3s6.9-1.4 8.9-4.3 3-7.1 3-12.8V50.1zm42.2 42.1h-8.8V35.8l-13.4.2v-6.3l22.2-2.4v64.9zm66.6-58.1c-7.9 9.3-13.2 17.6-16 24.8-2.8 7.2-4.8 16-6 26.2l-.7 7h-8.8l.7-7c1.3-10.2 3.7-19.4 7.3-27.5 3.6-8.1 8.6-15.9 14.9-23.6H172v-6.9h44.2v7z" fill="#FFF"/></svg>