<svg xmlns="http://www.w3.org/2000/svg" width="300" height="200"><path fill-rule="evenodd" clip-rule="evenodd" fill="#FFAB57" d="M0 0h300v200H0z"/><path fill-rule="evenodd" clip-rule="evenodd" fill="#FFF" d="M300 91.5c-10.5.1-18.4 4.1-18.4 4.1s1.5-6.1-2.3-12.9c-10.6 1.5-27.2 18.2-29.4 22-2.3 3.8 11.3-26.6 6.8-41-7.5 0-19.6 5.3-19.6 5.3s0-28.1-13.6-38c-13.6 9.9-13.6 38-13.6 38s-12.1-5.3-19.6-5.3c-4.5 14.4 9.1 44.8 6.8 41-2.3-3.8-18.9-20.5-29.4-22-3.8 6.8-2.3 12.9-2.3 12.9s-10.6-5.3-23.4-3.8c.8 10.6 18.9 31.9 18.9 31.9s-6.8 0-13.6 4.6c3.8 11.4 27.9 22.8 27.9 22.8l-18.9 20.5s32.6 19.3 64.2 5.2c-.3 7.8-1.2 16.2-2.8 23.4h7.5c1.5-7.9 2.3-15.9 2.7-22.7 31.1 12.8 62.7-5.8 62.7-5.8l-18.9-20.5s24.2-11.4 27.9-22.8c-6.8-4.6-13.6-4.6-13.6-4.6s8.3-9.7 13.9-19.3v-13z" opacity=".502"/><g><g fill="#FFF"><path d="M67.7 92.2H25.3v-6.1l21.4-23.6c3.8-4.3 6.4-7.6 7.8-10.1 1.4-2.5 2-5.1 2-7.7 0-3.2-1-6-2.9-8.2-1.9-2.2-4.4-3.3-7.6-3.3-4.5 0-7.9 1.2-10 3.5-2.1 2.3-3.2 5.5-3.2 9.7h-8.5l-.1-.3c0-5.6 1.9-10.3 5.8-14.1 3.9-3.8 9.3-5.7 16.2-5.7 5.9 0 10.5 1.7 14 5.1 3.5 3.4 5.2 7.7 5.2 13 0 3.5-1.1 7.1-3.2 10.6-2.1 3.6-5.1 7.4-8.9 11.5L36.2 85.1l.1.2h31.4v6.9zM116.2 67.4c0 8.3-1.8 14.7-5.5 19.1-3.7 4.4-8.8 6.6-15.2 6.6-6.4 0-11.5-2.2-15.3-6.7-3.7-4.4-5.6-10.8-5.6-19.1V52c0-8.3 1.9-14.6 5.6-19.1 3.7-4.4 8.8-6.7 15.2-6.7 6.4 0 11.5 2.2 15.2 6.7 3.7 4.5 5.6 10.8 5.6 19.1v15.4zm-8.8-17.3c0-5.6-1-9.9-3.1-12.7-2.1-2.8-5-4.3-8.9-4.3s-6.9 1.4-8.9 4.3c-2 2.8-3.1 7.1-3.1 12.7v19c0 5.6 1 9.9 3.1 12.7 2.1 2.9 5 4.3 8.9 4.3s6.9-1.4 8.9-4.3 3-7.1 3-12.8V50.1zM149.6 92.2h-8.8V35.8l-13.4.2v-6.3l22.2-2.4v64.9zM216.2 34.1c-7.9 9.3-13.2 17.6-16 24.8-2.8 7.2-4.8 16-6 26.2l-.7 7h-8.8l.7-7c1.3-10.2 3.7-19.4 7.3-27.5 3.6-8.1 8.6-15.9 14.9-23.6H172v-6.9h44.2v7z"/></g><g opacity=".5" fill="none" stroke="#807175" stroke-width="2"><path d="M67.7 92.2H25.3v-6.1l21.4-23.6c3.8-4.3 6.4-7.6 7.8-10.1 1.4-2.5 2-5.1 2-7.7 0-3.2-1-6-2.9-8.2-1.9-2.2-4.4-3.3-7.6-3.3-4.5 0-7.9 1.2-10 3.5-2.1 2.3-3.2 5.5-3.2 9.7h-8.5l-.1-.3c0-5.6 1.9-10.3 5.8-14.1 3.9-3.8 9.3-5.7 16.2-5.7 5.9 0 10.5 1.7 14 5.1 3.5 3.4 5.2 7.7 5.2 13 0 3.5-1.1 7.1-3.2 10.6-2.1 3.6-5.1 7.4-8.9 11.5L36.2 85.1l.1.2h31.4v6.9zM116.2 67.4c0 8.3-1.8 14.7-5.5 19.1-3.7 4.4-8.8 6.6-15.2 6.6-6.4 0-11.5-2.2-15.3-6.7-3.7-4.4-5.6-10.8-5.6-19.1V52c0-8.3 1.9-14.6 5.6-19.1 3.7-4.4 8.8-6.7 15.2-6.7 6.4 0 11.5 2.2 15.2 6.7 3.7 4.5 5.6 10.8 5.6 19.1v15.4zm-8.8-17.3c0-5.6-1-9.9-3.1-12.7-2.1-2.8-5-4.3-8.9-4.3s-6.9 1.4-8.9 4.3c-2 2.8-3.1 7.1-3.1 12.7v19c0 5.6 1 9.9 3.1 12.7 2.1 2.9 5 4.3 8.9 4.3s6.9-1.4 8.9-4.3 3-7.1 3-12.8V50.1zM149.6 92.2h-8.8V35.8l-13.4.2v-6.3l22.2-2.4v64.9zM216.2 34.1c-7.9 9.3-13.2 17.6-16 24.8-2.8 7.2-4.8 16-6 26.2l-.7 7h-8.8l.7-7c1.3-10.2 3.7-19.4 7.3-27.5 3.6-8.1 8.6-15.9 14.9-23.6H172v-6.9h44.2v7z"/></g><g fill="#FFF"><path d="M67.7 92.2H25.3v-6.1l21.4-23.6c3.8-4.3 6.4-7.6 7.8-10.1 1.4-2.5 2-5.1 2-7.7 0-3.2-1-6-2.9-8.2-1.9-2.2-4.4-3.3-7.6-3.3-4.5 0-7.9 1.2-10 3.5-2.1 2.3-3.2 5.5-3.2 9.7h-8.5l-.1-.3c0-5.6 1.9-10.3 5.8-14.1 3.9-3.8 9.3-5.7 16.2-5.7 5.9 0 10.5 1.7 14 5.1 3.5 3.4 5.2 7.7 5.2 13 0 3.5-1.1 7.1-3.2 10.6-2.1 3.6-5.1 7.4-8.9 11.5L36.2 85.1l.1.2h31.4v6.9zM116.2 67.4c0 8.3-1.8 14.7-5.5 19.1-3.7 4.4-8.8 6.6-15.2 6.6-6.4 0-11.5-2.2-15.3-6.7-3.7-4.4-5.6-10.8-5.6-19.1V52c0-8.3 1.9-14.6 5.6-19.1 3.7-4.4 8.8-6.7 15.2-6.7 6.4 0 11.5 2.2 15.2 6.7 3.7 4.5 5.6 10.8 5.6 19.1v15.4zm-8.8-17.3c0-5.6-1-9.9-3.1-12.7-2.1-2.8-5-4.3-8.9-4.3s-6.9 1.4-8.9 4.3c-2 2.8-3.1 7.1-3.1 12.7v19c0 5.6 1 9.9 3.1 12.7 2.1 2.9 5 4.3 8.9 4.3s6.9-1.4 8.9-4.3 3-7.1 3-12.8V50.1zM149.6 92.2h-8.8V35.8l-13.4.2v-6.3l22.2-2.4v64.9zM216.2 34.1c-7.9 9.3-13.2 17.6-16 24.8-2.8 7.2-4.8 16-6 26.2l-.7 7h-8.8l.7-7c1.3-10.2 3.7-19.4 7.3-27.5 3.6-8.1 8.6-15.9 14.9-23.6H172v-6.9h44.2v7z"/></g></g></svg>