<svg xmlns="http://www.w3.org/2000/svg" width="300" height="200"><path fill-rule="evenodd" clip-rule="evenodd" fill="#C2E617" d="M0 0h300v200H0z"/><path fill-rule="evenodd" clip-rule="evenodd" fill="#FFF" d="M231.7 94.2L223.5 39l-8.2 55.2c2.6-.7 5.3-1 8.2-1a28 28 0 018.2 1zm19.7 14.9l33.3-44.8-44.8 33.3c4.7 2.8 8.7 6.8 11.5 11.5zm-44.3-11.5l-44.8-33.3 33.3 44.8c2.8-4.7 6.8-8.7 11.5-11.5zM310 125.5l-55.2-8.2a36.1 36.1 0 010 16.4l55.2-8.2zm-86.5-26.6a26.6 26.6 0 100 53.2 26.6 26.6 0 000-53.2zm-32.3 26.6c0-2.8.4-5.6 1-8.2l-55.2 8.2 55.2 8.2c-.7-2.6-1-5.4-1-8.2zm48.7 27.9l44.8 33.3-33.3-44.8a33.3 33.3 0 01-11.5 11.5zm-24.6 3.4l8.2 55.2 8.2-55.2a31.8 31.8 0 01-16.4 0zm-19.7-14.9l-33.3 44.8 44.8-33.3a33.3 33.3 0 01-11.5-11.5z" opacity=".5"/><path d="M67.7 92.2H25.3v-6.1l21.4-23.6c3.8-4.3 6.4-7.6 7.8-10.1 1.4-2.5 2-5.1 2-7.7 0-3.2-1-6-2.9-8.2a9.5 9.5 0 00-7.6-3.3c-4.5 0-7.9 1.2-10 3.5a13.8 13.8 0 00-3.2 9.7h-8.5l-.1-.3c0-5.6 1.9-10.3 5.8-14.1 3.9-3.8 9.3-5.7 16.2-5.7 5.9 0 10.5 1.7 14 5.1 3.5 3.4 5.2 7.7 5.2 13 0 3.5-1.1 7.1-3.2 10.6a67.7 67.7 0 01-8.9 11.5L36.2 85.1l.1.2h31.4v6.9zm48.5-24.8c0 8.3-1.8 14.7-5.5 19.1a18.8 18.8 0 01-15.2 6.6 19 19 0 01-15.3-6.7 29 29 0 01-5.6-19.1V52c0-8.3 1.9-14.6 5.6-19.1a19 19 0 0115.2-6.7c6.4 0 11.5 2.2 15.2 6.7a29.2 29.2 0 015.6 19.1v15.4zm-8.8-17.3c0-5.6-1-9.9-3.1-12.7-2.1-2.8-5-4.3-8.9-4.3s-6.9 1.4-8.9 4.3a22 22 0 00-3.1 12.7v19c0 5.6 1 9.9 3.1 12.7 2.1 2.9 5 4.3 8.9 4.3s6.9-1.4 8.9-4.3 3-7.1 3-12.8V50.1zm42.2 42.1h-8.8V35.8l-13.4.2v-6.3l22.2-2.4v64.9zm64.3-48c0 3.4-1 6.4-2.9 8.9s-4.5 4.4-7.8 5.7a19 19 0 019 6.2c2.3 2.8 3.4 6 3.4 9.7 0 6-2 10.6-5.9 13.8a23.5 23.5 0 01-15.3 4.8c-6.4 0-11.6-1.6-15.5-4.8a16.9 16.9 0 01-5.9-13.8c0-3.7 1.1-6.9 3.3-9.7a19 19 0 019-6.2 16.6 16.6 0 01-7.7-5.7 14.3 14.3 0 01-2.8-8.9c0-5.7 1.8-10.1 5.3-13.2 3.5-3.1 8.2-4.7 14.1-4.7 5.7 0 10.4 1.6 14.1 4.7 3.8 3.1 5.6 7.5 5.6 13.2zm-7 30.2c0-3.6-1.2-6.5-3.5-8.8a12.5 12.5 0 00-9-3.4c-3.7 0-6.7 1.1-9 3.4s-3.4 5.2-3.4 8.8c0 3.7 1.1 6.6 3.4 8.7 2.3 2.1 5.3 3.1 9.1 3.1 3.7 0 6.7-1.1 9-3.2 2.2-2 3.4-4.9 3.4-8.6zm-1.9-30c0-3.2-1-5.9-3-8-2-2.1-4.6-3.2-7.7-3.2-3.1 0-5.7 1-7.6 3.1-1.9 2-2.9 4.7-2.9 8.1 0 3.3 1 6 2.9 7.9 2 2 4.5 3 7.7 3 3.1 0 5.7-1 7.6-3 2-2 3-4.6 3-7.9z" fill="#FFF"/><path d="M67.7 92.2H25.3v-6.1l21.4-23.6c3.8-4.3 6.4-7.6 7.8-10.1 1.4-2.5 2-5.1 2-7.7 0-3.2-1-6-2.9-8.2a9.5 9.5 0 00-7.6-3.3c-4.5 0-7.9 1.2-10 3.5a13.8 13.8 0 00-3.2 9.7h-8.5l-.1-.3c0-5.6 1.9-10.3 5.8-14.1 3.9-3.8 9.3-5.7 16.2-5.7 5.9 0 10.5 1.7 14 5.1 3.5 3.4 5.2 7.7 5.2 13 0 3.5-1.1 7.1-3.2 10.6a67.7 67.7 0 01-8.9 11.5L36.2 85.1l.1.2h31.4v6.9zm48.5-24.8c0 8.3-1.8 14.7-5.5 19.1a18.8 18.8 0 01-15.2 6.6 19 19 0 01-15.3-6.7 29 29 0 01-5.6-19.1V52c0-8.3 1.9-14.6 5.6-19.1a19 19 0 0115.2-6.7c6.4 0 11.5 2.2 15.2 6.7a29.2 29.2 0 015.6 19.1v15.4zm-8.8-17.3c0-5.6-1-9.9-3.1-12.7-2.1-2.8-5-4.3-8.9-4.3s-6.9 1.4-8.9 4.3a22 22 0 00-3.1 12.7v19c0 5.6 1 9.9 3.1 12.7 2.1 2.9 5 4.3 8.9 4.3s6.9-1.4 8.9-4.3 3-7.1 3-12.8V50.1zm42.2 42.1h-8.8V35.8l-13.4.2v-6.3l22.2-2.4v64.9zm64.3-48c0 3.4-1 6.4-2.9 8.9s-4.5 4.4-7.8 5.7a19 19 0 019 6.2c2.3 2.8 3.4 6 3.4 9.7 0 6-2 10.6-5.9 13.8a23.5 23.5 0 01-15.3 4.8c-6.4 0-11.6-1.6-15.5-4.8a16.9 16.9 0 01-5.9-13.8c0-3.7 1.1-6.9 3.3-9.7a19 19 0 019-6.2 16.6 16.6 0 01-7.7-5.7 14.3 14.3 0 01-2.8-8.9c0-5.7 1.8-10.1 5.3-13.2 3.5-3.1 8.2-4.7 14.1-4.7 5.7 0 10.4 1.6 14.1 4.7 3.8 3.1 5.6 7.5 5.6 13.2zm-7 30.2c0-3.6-1.2-6.5-3.5-8.8a12.5 12.5 0 00-9-3.4c-3.7 0-6.7 1.1-9 3.4s-3.4 5.2-3.4 8.8c0 3.7 1.1 6.6 3.4 8.7 2.3 2.1 5.3 3.1 9.1 3.1 3.7 0 6.7-1.1 9-3.2 2.2-2 3.4-4.9 3.4-8.6zm-1.9-30c0-3.2-1-5.9-3-8-2-2.1-4.6-3.2-7.7-3.2-3.1 0-5.7 1-7.6 3.1-1.9 2-2.9 4.7-2.9 8.1 0 3.3 1 6 2.9 7.9 2 2 4.5 3 7.7 3 3.1 0 5.7-1 7.6-3 2-2 3-4.6 3-7.9z" opacity=".5" fill="none" stroke="#807175" stroke-width="2"/><path d="M67.7 92.2H25.3v-6.1l21.4-23.6c3.8-4.3 6.4-7.6 7.8-10.1 1.4-2.5 2-5.1 2-7.7 0-3.2-1-6-2.9-8.2a9.5 9.5 0 00-7.6-3.3c-4.5 0-7.9 1.2-10 3.5a13.8 13.8 0 00-3.2 9.7h-8.5l-.1-.3c0-5.6 1.9-10.3 5.8-14.1 3.9-3.8 9.3-5.7 16.2-5.7 5.9 0 10.5 1.7 14 5.1 3.5 3.4 5.2 7.7 5.2 13 0 3.5-1.1 7.1-3.2 10.6a67.7 67.7 0 01-8.9 11.5L36.2 85.1l.1.2h31.4v6.9zm48.5-24.8c0 8.3-1.8 14.7-5.5 19.1a18.8 18.8 0 01-15.2 6.6 19 19 0 01-15.3-6.7 29 29 0 01-5.6-19.1V52c0-8.3 1.9-14.6 5.6-19.1a19 19 0 0115.2-6.7c6.4 0 11.5 2.2 15.2 6.7a29.2 29.2 0 015.6 19.1v15.4zm-8.8-17.3c0-5.6-1-9.9-3.1-12.7-2.1-2.8-5-4.3-8.9-4.3s-6.9 1.4-8.9 4.3a22 22 0 00-3.1 12.7v19c0 5.6 1 9.9 3.1 12.7 2.1 2.9 5 4.3 8.9 4.3s6.9-1.4 8.9-4.3 3-7.1 3-12.8V50.1zm42.2 42.1h-8.8V35.8l-13.4.2v-6.3l22.2-2.4v64.9zm64.3-48c0 3.4-1 6.4-2.9 8.9s-4.5 4.4-7.8 5.7a19 19 0 019 6.2c2.3 2.8 3.4 6 3.4 9.7 0 6-2 10.6-5.9 13.8a23.5 23.5 0 01-15.3 4.8c-6.4 0-11.6-1.6-15.5-4.8a16.9 16.9 0 01-5.9-13.8c0-3.7 1.1-6.9 3.3-9.7a19 19 0 019-6.2 16.6 16.6 0 01-7.7-5.7 14.3 14.3 0 01-2.8-8.9c0-5.7 1.8-10.1 5.3-13.2 3.5-3.1 8.2-4.7 14.1-4.7 5.7 0 10.4 1.6 14.1 4.7 3.8 3.1 5.6 7.5 5.6 13.2zm-7 30.2c0-3.6-1.2-6.5-3.5-8.8a12.5 12.5 0 00-9-3.4c-3.7 0-6.7 1.1-9 3.4s-3.4 5.2-3.4 8.8c0 3.7 1.1 6.6 3.4 8.7 2.3 2.1 5.3 3.1 9.1 3.1 3.7 0 6.7-1.1 9-3.2 2.2-2 3.4-4.9 3.4-8.6zm-1.9-30c0-3.2-1-5.9-3-8-2-2.1-4.6-3.2-7.7-3.2-3.1 0-5.7 1-7.6 3.1-1.9 2-2.9 4.7-2.9 8.1 0 3.3 1 6 2.9 7.9 2 2 4.5 3 7.7 3 3.1 0 5.7-1 7.6-3 2-2 3-4.6 3-7.9z" fill="#FFF"/></svg>