<svg xmlns="http://www.w3.org/2000/svg" width="300" height="200"><path fill="#FFAB57" d="M0 0h300v200H0V0z"/><path opacity=".502" fill="#FFF" d="M300 91.5c-10.5.1-18.4 4.1-18.4 4.1s1.5-6.1-2.3-12.9c-10.6 1.5-27.2 18.2-29.399 22-2.301 3.8 11.3-26.6 6.8-41-7.5 0-19.601 5.3-19.601 5.3s0-28.1-13.6-38c-13.6 9.9-13.6 38-13.6 38s-12.1-5.3-19.6-5.3c-4.5 14.4 9.101 44.8 6.8 41-2.3-3.8-18.899-20.5-29.399-22-3.8 6.8-2.3 12.9-2.3 12.9S154.8 90.3 142 91.8c.8 10.601 18.9 31.9 18.9 31.9s-6.801 0-13.601 4.6c3.8 11.4 27.9 22.8 27.9 22.8l-18.9 20.5s32.601 19.301 64.2 5.2c-.3 7.8-1.2 16.2-2.8 23.4h7.5c1.5-7.9 2.3-15.9 2.7-22.7 31.1 12.8 62.699-5.8 62.699-5.8L271.7 151.2s24.2-11.4 27.899-22.8C292.8 123.8 286 123.8 286 123.8s8.3-9.7 13.9-19.3v-13h.1z"/><g fill="#FFF"><path d="M67.7 92.2H25.3v-6.1l21.4-23.6c3.8-4.3 6.4-7.6 7.8-10.1s2-5.1 2-7.7c0-3.2-1-6-2.9-8.2s-4.4-3.3-7.6-3.3c-4.5 0-7.9 1.2-10 3.5-2.1 2.3-3.2 5.5-3.2 9.7h-8.5l-.1-.3c0-5.6 1.9-10.3 5.8-14.1s9.3-5.7 16.2-5.7c5.9 0 10.5 1.7 14 5.1s5.2 7.7 5.2 13c0 3.5-1.1 7.1-3.2 10.6-2.1 3.6-5.1 7.4-8.9 11.5L36.2 85.1l.1.2h31.4v6.9zM116.2 67.4c0 8.3-1.8 14.7-5.5 19.1-3.7 4.4-8.8 6.6-15.2 6.6S84 90.9 80.2 86.4c-3.7-4.4-5.6-10.8-5.6-19.1V52c0-8.3 1.9-14.6 5.6-19.1 3.7-4.4 8.8-6.7 15.2-6.7s11.5 2.2 15.2 6.7c3.7 4.5 5.6 10.8 5.6 19.1v15.4zm-8.8-17.3c0-5.6-1-9.9-3.1-12.7-2.1-2.8-5-4.3-8.9-4.3s-6.9 1.4-8.9 4.3c-2 2.8-3.1 7.1-3.1 12.7v19c0 5.6 1 9.9 3.1 12.7 2.1 2.9 5 4.3 8.9 4.3s6.8-1.4 8.9-4.3c2-2.9 3-7.1 3-12.8V50.1h.1zM149.6 92.2h-8.8V35.8l-13.4.2v-6.3l22.2-2.4v64.9zM191.5 86.2c4.3 0 7.8-1.6 10.4-4.9 2.6-3.2 3.899-8 3.899-14.4V64c-1.5 2.1-3.3 3.7-5.5 4.8-2.2 1.1-4.6 1.6-7.3 1.6-6.3 0-11.3-1.9-15-5.8s-5.6-9.2-5.6-16.1c0-6.5 2-11.9 5.899-16 3.9-4.2 8.7-6.3 14.4-6.3 6.8 0 12.2 2.1 16.1 6.4 3.9 4.3 5.9 10.5 5.9 18.7v15.5c0 8.5-2.101 15-6.4 19.5s-9.8 6.8-16.7 6.8c-2.3 0-4.6-.2-7-.7-2.399-.4-4.5-1.1-6.399-2l1.3-6.8c1.8.9 3.6 1.6 5.5 1.9 1.801.6 4.001.7 6.501.7zm1.4-22.7c3.3 0 6-.7 8.199-2.1 2.2-1.4 3.7-3.2 4.7-5.4v-5.6c0-5.7-1.1-10-3.3-12.9s-5.4-4.4-9.6-4.4c-3.2 0-6 1.4-8.301 4.3-2.3 2.9-3.399 6.5-3.399 11s1.1 8.1 3.2 10.8c2.001 2.9 4.801 4.3 8.501 4.3z"/></g><g opacity=".5" fill="none" stroke="#807175" stroke-width="2"><path d="M67.7 92.2H25.3v-6.1l21.4-23.6c3.8-4.3 6.4-7.6 7.8-10.1s2-5.1 2-7.7c0-3.2-1-6-2.9-8.2s-4.4-3.3-7.6-3.3c-4.5 0-7.9 1.2-10 3.5-2.1 2.3-3.2 5.5-3.2 9.7h-8.5l-.1-.3c0-5.6 1.9-10.3 5.8-14.1s9.3-5.7 16.2-5.7c5.9 0 10.5 1.7 14 5.1s5.2 7.7 5.2 13c0 3.5-1.1 7.1-3.2 10.6-2.1 3.6-5.1 7.4-8.9 11.5L36.2 85.1l.1.2h31.4v6.9zM116.2 67.4c0 8.3-1.8 14.7-5.5 19.1-3.7 4.4-8.8 6.6-15.2 6.6S84 90.9 80.2 86.4c-3.7-4.4-5.6-10.8-5.6-19.1V52c0-8.3 1.9-14.6 5.6-19.1 3.7-4.4 8.8-6.7 15.2-6.7s11.5 2.2 15.2 6.7c3.7 4.5 5.6 10.8 5.6 19.1v15.4h0zm-8.8-17.3c0-5.6-1-9.9-3.1-12.7-2.1-2.8-5-4.3-8.9-4.3s-6.9 1.4-8.9 4.3c-2 2.8-3.1 7.1-3.1 12.7v19c0 5.6 1 9.9 3.1 12.7 2.1 2.9 5 4.3 8.9 4.3s6.8-1.4 8.9-4.3c2-2.9 3-7.1 3-12.8V50.1h.1zM149.6 92.2h-8.8V35.8l-13.4.2v-6.3l22.2-2.4v64.9zM191.5 86.2c4.3 0 7.8-1.6 10.4-4.9 2.6-3.2 3.899-8 3.899-14.4V64c-1.5 2.1-3.3 3.7-5.5 4.8-2.2 1.1-4.6 1.6-7.3 1.6-6.3 0-11.3-1.9-15-5.8s-5.6-9.2-5.6-16.1c0-6.5 2-11.9 5.899-16 3.9-4.2 8.7-6.3 14.4-6.3 6.8 0 12.2 2.1 16.1 6.4 3.9 4.3 5.9 10.5 5.9 18.7v15.5c0 8.5-2.101 15-6.4 19.5s-9.8 6.8-16.7 6.8c-2.3 0-4.6-.2-7-.7-2.399-.4-4.5-1.1-6.399-2l1.3-6.8c1.8.9 3.6 1.6 5.5 1.9 1.801.6 4.001.7 6.501.7zm1.4-22.7c3.3 0 6-.7 8.199-2.1 2.2-1.4 3.7-3.2 4.7-5.4v-5.6c0-5.7-1.1-10-3.3-12.9s-5.4-4.4-9.6-4.4c-3.2 0-6 1.4-8.301 4.3-2.3 2.9-3.399 6.5-3.399 11s1.1 8.1 3.2 10.8c2.001 2.9 4.801 4.3 8.501 4.3z"/></g><g fill="#FFF"><path d="M67.7 92.2H25.3v-6.1l21.4-23.6c3.8-4.3 6.4-7.6 7.8-10.1s2-5.1 2-7.7c0-3.2-1-6-2.9-8.2s-4.4-3.3-7.6-3.3c-4.5 0-7.9 1.2-10 3.5-2.1 2.3-3.2 5.5-3.2 9.7h-8.5l-.1-.3c0-5.6 1.9-10.3 5.8-14.1s9.3-5.7 16.2-5.7c5.9 0 10.5 1.7 14 5.1s5.2 7.7 5.2 13c0 3.5-1.1 7.1-3.2 10.6-2.1 3.6-5.1 7.4-8.9 11.5L36.2 85.1l.1.2h31.4v6.9zM116.2 67.4c0 8.3-1.8 14.7-5.5 19.1-3.7 4.4-8.8 6.6-15.2 6.6S84 90.9 80.2 86.4c-3.7-4.4-5.6-10.8-5.6-19.1V52c0-8.3 1.9-14.6 5.6-19.1 3.7-4.4 8.8-6.7 15.2-6.7s11.5 2.2 15.2 6.7c3.7 4.5 5.6 10.8 5.6 19.1v15.4zm-8.8-17.3c0-5.6-1-9.9-3.1-12.7-2.1-2.8-5-4.3-8.9-4.3s-6.9 1.4-8.9 4.3c-2 2.8-3.1 7.1-3.1 12.7v19c0 5.6 1 9.9 3.1 12.7 2.1 2.9 5 4.3 8.9 4.3s6.8-1.4 8.9-4.3c2-2.9 3-7.1 3-12.8V50.1h.1zM149.6 92.2h-8.8V35.8l-13.4.2v-6.3l22.2-2.4v64.9zM191.5 86.2c4.3 0 7.8-1.6 10.4-4.9 2.6-3.2 3.899-8 3.899-14.4V64c-1.5 2.1-3.3 3.7-5.5 4.8-2.2 1.1-4.6 1.6-7.3 1.6-6.3 0-11.3-1.9-15-5.8s-5.6-9.2-5.6-16.1c0-6.5 2-11.9 5.899-16 3.9-4.2 8.7-6.3 14.4-6.3 6.8 0 12.2 2.1 16.1 6.4 3.9 4.3 5.9 10.5 5.9 18.7v15.5c0 8.5-2.101 15-6.4 19.5s-9.8 6.8-16.7 6.8c-2.3 0-4.6-.2-7-.7-2.399-.4-4.5-1.1-6.399-2l1.3-6.8c1.8.9 3.6 1.6 5.5 1.9 1.801.6 4.001.7 6.501.7zm1.4-22.7c3.3 0 6-.7 8.199-2.1 2.2-1.4 3.7-3.2 4.7-5.4v-5.6c0-5.7-1.1-10-3.3-12.9s-5.4-4.4-9.6-4.4c-3.2 0-6 1.4-8.301 4.3-2.3 2.9-3.399 6.5-3.399 11s1.1 8.1 3.2 10.8c2.001 2.9 4.801 4.3 8.501 4.3z"/></g></svg>