<svg xmlns="http://www.w3.org/2000/svg" width="300" height="200"><path fill-rule="evenodd" clip-rule="evenodd" fill="#FF7FFF" d="M0 0h300v200H0z"/><path fill-rule="evenodd" clip-rule="evenodd" fill="#FFF" d="M225.7 125.6s4.4 56.4 9.3 74.4h31.4c2.1-3.4 3.2-6.7 6.5-9.3 4.7-3.9 10.1-2 16.6-5.4 6.5-3.4 14.5-16.8 7.8-24.8-6.8-8.1-71.6-34.9-71.6-34.9zm16.4-86.5c-7.2 1.1-10.4 5.1-16.6 5.4-6.1.4-9.4-4.3-16.6-5.4-7.2-1.1-21.6 5.1-20.9 15.5.7 10.5 37.4 70.3 37.4 70.3s36.7-59.9 37.4-70.3c.9-10.4-13.5-16.6-20.7-15.5zM281 67.8c-9.7 3.9-55.2 57.4-55.2 57.4s56.2 13.6 74.2 14.2v-62c-3.8-6.4-11.5-12.6-19-9.6zm-127.3 92.6c-6.7 8 1.3 21.5 7.8 24.8 6.5 3.4 11.4 2.1 16.6 5.4 3.6 2.3 4.6 5.7 6.6 9.3H216c4.9-18 9.3-74.4 9.3-74.4s-64.8 26.9-71.6 34.9zM170 67.8c-9.7-3.9-20 7.9-21.2 15.1-1.2 7.2 1.6 11.5 0 17.4-1.5 5.9-7 7.6-10.3 14.1-3.2 6.5-1.9 22.1 8.3 24.7 10.1 2.5 78.3-13.9 78.3-13.9S179.7 71.7 170 67.8z" opacity=".502"/><g><text transform="matrix(1.006 0 0 1 20 92.221)" fill="#FFF" font-family="'Roboto-Regular'" font-size="91.436" letter-spacing="-2">2019</text><text transform="matrix(1.006 0 0 1 20 92.221)" fill="none" stroke="#807175" stroke-width="2" font-family="'Roboto-Regular'" font-size="91.436" letter-spacing="-2" opacity=".5">2019</text><text transform="matrix(1.006 0 0 1 20 92.221)" fill="#FFF" font-family="'Roboto-Regular'" font-size="91.436" letter-spacing="-2">2019</text></g></svg>