<svg xmlns="http://www.w3.org/2000/svg" height="200" width="300"><path d="M0 0h300v200H0z" fill="#0080FF" clip-rule="evenodd" fill-rule="evenodd"/><path opacity=".502" d="M300 120.8h-6.3l6.3-10.9V98.1l-1.6-2.8h-10.1l-14.7 25.5h-33l16.5-28.5h29.5l5-8.7-5-8.7h-19.4l11.1-19.2-5-8.7h-10.1l-11.1 19.2-9.8-16.7h-10l-5.1 8.7L242 83.6l-16.5 28.5L209 83.6l14.8-25.4-5.1-8.7h-10l-9.8 16.7L187.8 47h-10l-5.1 8.7 11.1 19.2h-19.4l-5 8.7 5 8.7h29.5l16.5 28.5h-33l-14.7-25.5h-10.1l-5 8.7 9.7 16.8H135l-5 8.7 5 8.7h22.3l-9.7 16.8 5 8.7h10.1l14.7-25.5h33l-16.5 28.5h-29.5l-5 8.7 5 8.7h19.4l-9.2 15.9h20.2l4.1-7.2 4.2 7.2h20.2L209 175.4l16.5-28.5 16.5 28.5-14.3 24.6h20.2l4.2-7.2 4.1 7.2h20.2l-9.2-15.9h19.4l5-8.7-5-8.7h-29.5l-16.5-28.5h33l14.7 25.5h10.1l1.6-2.8v-11.8l-6.3-10.9h6.3z" fill="#FFF" clip-rule="evenodd" fill-rule="evenodd"/><path d="M67.7 92.2H25.3v-6.1l21.4-23.6c3.8-4.3 6.4-7.6 7.8-10.1 1.4-2.5 2-5.1 2-7.7 0-3.2-1-6-2.9-8.2-1.9-2.2-4.4-3.3-7.6-3.3-4.5 0-7.9 1.2-10 3.5-2.1 2.3-3.2 5.5-3.2 9.7h-8.5l-.1-.3c0-5.6 1.9-10.3 5.8-14.1 3.9-3.8 9.3-5.7 16.2-5.7 5.9 0 10.5 1.7 14 5.1 3.5 3.4 5.2 7.7 5.2 13 0 3.5-1.1 7.1-3.2 10.6-2.1 3.6-5.1 7.4-8.9 11.5L36.2 85.1l.1.2h31.4zm48.5-24.8c0 8.3-1.8 14.7-5.5 19.1-3.7 4.4-8.8 6.6-15.2 6.6-6.4 0-11.5-2.2-15.3-6.7-3.7-4.4-5.6-10.8-5.6-19.1V52c0-8.3 1.9-14.6 5.6-19.1 3.7-4.4 8.8-6.7 15.2-6.7 6.4 0 11.5 2.2 15.2 6.7 3.7 4.5 5.6 10.8 5.6 19.1zm-8.8-17.3c0-5.6-1-9.9-3.1-12.7-2.1-2.8-5-4.3-8.9-4.3-3.9 0-6.9 1.4-8.9 4.3-2 2.8-3.1 7.1-3.1 12.7v19c0 5.6 1 9.9 3.1 12.7 2.1 2.9 5 4.3 8.9 4.3 3.9 0 6.8-1.4 8.9-4.3 2-2.9 3-7.1 3-12.8V50.1zm42.2 42.1h-8.8V35.8l-13.4.2v-6.3l22.2-2.4zm41.9-6c4.3 0 7.8-1.6 10.4-4.9 2.6-3.2 3.899-8 3.899-14.4V64c-1.5 2.1-3.3 3.7-5.5 4.8-2.2 1.1-4.6 1.6-7.3 1.6-6.3 0-11.3-1.9-15-5.8-3.7-3.9-5.6-9.2-5.6-16.1 0-6.5 2-11.9 5.899-16 3.9-4.2 8.7-6.3 14.4-6.3 6.8 0 12.2 2.1 16.1 6.4 3.9 4.3 5.9 10.5 5.9 18.7v15.5c0 8.5-2.101 15-6.4 19.5s-9.8 6.8-16.7 6.8c-2.3 0-4.6-.2-7-.7-2.399-.4-4.5-1.1-6.399-2l1.3-6.8c1.8.9 3.6 1.6 5.5 1.9 1.801.6 4.001.7 6.501.7zm1.4-22.7c3.3 0 6-.7 8.199-2.1 2.2-1.4 3.7-3.2 4.7-5.4v-5.6c0-5.7-1.1-10-3.3-12.9-2.2-2.9-5.4-4.4-9.6-4.4-3.2 0-6 1.4-8.301 4.3-2.3 2.9-3.399 6.5-3.399 11s1.1 8.1 3.2 10.8c2.001 2.9 4.801 4.3 8.501 4.3z" fill="#FFF"/><path d="M67.7 92.2H25.3v-6.1l21.4-23.6c3.8-4.3 6.4-7.6 7.8-10.1 1.4-2.5 2-5.1 2-7.7 0-3.2-1-6-2.9-8.2-1.9-2.2-4.4-3.3-7.6-3.3-4.5 0-7.9 1.2-10 3.5-2.1 2.3-3.2 5.5-3.2 9.7h-8.5l-.1-.3c0-5.6 1.9-10.3 5.8-14.1 3.9-3.8 9.3-5.7 16.2-5.7 5.9 0 10.5 1.7 14 5.1 3.5 3.4 5.2 7.7 5.2 13 0 3.5-1.1 7.1-3.2 10.6-2.1 3.6-5.1 7.4-8.9 11.5L36.2 85.1l.1.2h31.4zm48.5-24.8c0 8.3-1.8 14.7-5.5 19.1-3.7 4.4-8.8 6.6-15.2 6.6-6.4 0-11.5-2.2-15.3-6.7-3.7-4.4-5.6-10.8-5.6-19.1V52c0-8.3 1.9-14.6 5.6-19.1 3.7-4.4 8.8-6.7 15.2-6.7 6.4 0 11.5 2.2 15.2 6.7 3.7 4.5 5.6 10.8 5.6 19.1zm-8.8-17.3c0-5.6-1-9.9-3.1-12.7-2.1-2.8-5-4.3-8.9-4.3-3.9 0-6.9 1.4-8.9 4.3-2 2.8-3.1 7.1-3.1 12.7v19c0 5.6 1 9.9 3.1 12.7 2.1 2.9 5 4.3 8.9 4.3 3.9 0 6.8-1.4 8.9-4.3 2-2.9 3-7.1 3-12.8V50.1zm42.2 42.1h-8.8V35.8l-13.4.2v-6.3l22.2-2.4zm41.9-6c4.3 0 7.8-1.6 10.4-4.9 2.6-3.2 3.899-8 3.899-14.4V64c-1.5 2.1-3.3 3.7-5.5 4.8-2.2 1.1-4.6 1.6-7.3 1.6-6.3 0-11.3-1.9-15-5.8-3.7-3.9-5.6-9.2-5.6-16.1 0-6.5 2-11.9 5.899-16 3.9-4.2 8.7-6.3 14.4-6.3 6.8 0 12.2 2.1 16.1 6.4 3.9 4.3 5.9 10.5 5.9 18.7v15.5c0 8.5-2.101 15-6.4 19.5s-9.8 6.8-16.7 6.8c-2.3 0-4.6-.2-7-.7-2.399-.4-4.5-1.1-6.399-2l1.3-6.8c1.8.9 3.6 1.6 5.5 1.9 1.801.6 4.001.7 6.501.7zm1.4-22.7c3.3 0 6-.7 8.199-2.1 2.2-1.4 3.7-3.2 4.7-5.4v-5.6c0-5.7-1.1-10-3.3-12.9-2.2-2.9-5.4-4.4-9.6-4.4-3.2 0-6 1.4-8.301 4.3-2.3 2.9-3.399 6.5-3.399 11s1.1 8.1 3.2 10.8c2.001 2.9 4.801 4.3 8.501 4.3z" opacity=".5" fill="none" stroke="#807175" stroke-width="2"/><path d="M67.7 92.2H25.3v-6.1l21.4-23.6c3.8-4.3 6.4-7.6 7.8-10.1 1.4-2.5 2-5.1 2-7.7 0-3.2-1-6-2.9-8.2-1.9-2.2-4.4-3.3-7.6-3.3-4.5 0-7.9 1.2-10 3.5-2.1 2.3-3.2 5.5-3.2 9.7h-8.5l-.1-.3c0-5.6 1.9-10.3 5.8-14.1 3.9-3.8 9.3-5.7 16.2-5.7 5.9 0 10.5 1.7 14 5.1 3.5 3.4 5.2 7.7 5.2 13 0 3.5-1.1 7.1-3.2 10.6-2.1 3.6-5.1 7.4-8.9 11.5L36.2 85.1l.1.2h31.4zm48.5-24.8c0 8.3-1.8 14.7-5.5 19.1-3.7 4.4-8.8 6.6-15.2 6.6-6.4 0-11.5-2.2-15.3-6.7-3.7-4.4-5.6-10.8-5.6-19.1V52c0-8.3 1.9-14.6 5.6-19.1 3.7-4.4 8.8-6.7 15.2-6.7 6.4 0 11.5 2.2 15.2 6.7 3.7 4.5 5.6 10.8 5.6 19.1zm-8.8-17.3c0-5.6-1-9.9-3.1-12.7-2.1-2.8-5-4.3-8.9-4.3-3.9 0-6.9 1.4-8.9 4.3-2 2.8-3.1 7.1-3.1 12.7v19c0 5.6 1 9.9 3.1 12.7 2.1 2.9 5 4.3 8.9 4.3 3.9 0 6.8-1.4 8.9-4.3 2-2.9 3-7.1 3-12.8V50.1zm42.2 42.1h-8.8V35.8l-13.4.2v-6.3l22.2-2.4zm41.9-6c4.3 0 7.8-1.6 10.4-4.9 2.6-3.2 3.899-8 3.899-14.4V64c-1.5 2.1-3.3 3.7-5.5 4.8-2.2 1.1-4.6 1.6-7.3 1.6-6.3 0-11.3-1.9-15-5.8-3.7-3.9-5.6-9.2-5.6-16.1 0-6.5 2-11.9 5.899-16 3.9-4.2 8.7-6.3 14.4-6.3 6.8 0 12.2 2.1 16.1 6.4 3.9 4.3 5.9 10.5 5.9 18.7v15.5c0 8.5-2.101 15-6.4 19.5s-9.8 6.8-16.7 6.8c-2.3 0-4.6-.2-7-.7-2.399-.4-4.5-1.1-6.399-2l1.3-6.8c1.8.9 3.6 1.6 5.5 1.9 1.801.6 4.001.7 6.501.7zm1.4-22.7c3.3 0 6-.7 8.199-2.1 2.2-1.4 3.7-3.2 4.7-5.4v-5.6c0-5.7-1.1-10-3.3-12.9-2.2-2.9-5.4-4.4-9.6-4.4-3.2 0-6 1.4-8.301 4.3-2.3 2.9-3.399 6.5-3.399 11s1.1 8.1 3.2 10.8c2.001 2.9 4.801 4.3 8.501 4.3z" fill="#FFF"/></svg>