<svg xmlns="http://www.w3.org/2000/svg" width="300" height="200"><path fill="#ff7fff" fill-rule="evenodd" d="M0 0h300v200H0z" clip-rule="evenodd"/><path fill="#FFF" fill-rule="evenodd" d="M225.7 125.6s4.4 56.4 9.3 74.4h31.4c2.1-3.4 3.2-6.7 6.5-9.3 4.7-3.9 10.1-2 16.6-5.4 6.5-3.4 14.5-16.8 7.8-24.8-6.8-8.1-71.6-34.9-71.6-34.9zm16.4-86.5c-7.2 1.1-10.4 5.1-16.6 5.4-6.1.4-9.4-4.3-16.6-5.4-7.2-1.1-21.6 5.1-20.9 15.5.7 10.5 37.4 70.3 37.4 70.3s36.7-59.9 37.4-70.3c.9-10.4-13.5-16.6-20.7-15.5zM281 67.8c-9.7 3.9-55.2 57.4-55.2 57.4s56.2 13.6 74.2 14.2v-62c-3.8-6.4-11.5-12.6-19-9.6zm-127.3 92.6c-6.7 8 1.3 21.5 7.8 24.8 6.5 3.4 11.4 2.1 16.6 5.4 3.6 2.3 4.6 5.7 6.6 9.3H216c4.9-18 9.3-74.4 9.3-74.4s-64.8 26.9-71.6 34.9zM170 67.8c-9.7-3.9-20 7.9-21.2 15.1-1.2 7.2 1.6 11.5 0 17.4-1.5 5.9-7 7.6-10.3 14.1-3.2 6.5-1.9 22.1 8.3 24.7 10.1 2.5 78.3-13.9 78.3-13.9S179.7 71.7 170 67.8z" clip-rule="evenodd" opacity=".5"/><g><g fill="#fff" aria-label="2020" font-family="Roboto-Regular" font-size="91.4" letter-spacing="-2"><path d="M37.7 84.6h31.6v7.6H26.7v-7.6l14.1-14.2q9-9 11.2-11.6 4.4-4.8 6-8.2 1.8-3.4 1.8-6.6 0-5.4-3.7-8.7-3.8-3.4-9.8-3.4-4.2 0-9 1.5Q32.6 35 27.2 38v-9.1q5.5-2.2 10.2-3.3 4.8-1.1 8.7-1.1 10.5 0 16.7 5.1Q69 34.7 69 43.4q0 4-1.6 7.8-1.5 3.7-5.6 8.7l-7.2 7.5-17 17.2zM105.8 31.5q-7 0-10.6 6.9-3.5 6.8-3.5 20.6 0 13.7 3.5 20.5 3.6 6.9 10.6 6.9t10.6-6.9q3.5-6.8 3.5-20.5 0-13.8-3.5-20.6-3.6-6.9-10.6-6.9zm0-7.1q11.3 0 17.2 8.8 6 8.9 6 25.8 0 16.8-6 25.7-6 8.8-17.2 8.8-11.3 0-17.3-8.8-5.9-9-5.9-25.7 0-17 6-25.8t17.2-8.8zM150.8 84.6h31.6v7.6H140v-7.6l14-14.2q9-9 11.2-11.6 4.4-4.8 6.1-8.2 1.8-3.4 1.8-6.6 0-5.4-3.8-8.7-3.7-3.4-9.8-3.4-4.2 0-9 1.5-4.7 1.5-10.1 4.5v-9.1q5.5-2.2 10.2-3.3 4.8-1.1 8.8-1.1 10.4 0 16.6 5.1 6.2 5.2 6.2 13.9 0 4-1.6 7.8-1.5 3.7-5.6 8.7l-7.2 7.5-17 17.2zM219 31.5q-7.1 0-10.6 6.9-3.5 6.8-3.5 20.6 0 13.7 3.5 20.5 3.5 6.9 10.5 6.9t10.6-6.9Q233 72.7 233 59q0-13.8-3.5-20.6-3.5-6.9-10.6-6.9zm0-7.1q11.2 0 17.1 8.8 6 8.9 6 25.8 0 16.8-6 25.7-6 8.8-17.2 8.8-11.3 0-17.2-8.8-6-9-6-25.7 0-17 6-25.8t17.2-8.8z"/></g><g fill="none" stroke="#807175" stroke-width="2" aria-label="2020" font-family="Roboto-Regular" font-size="91.4" letter-spacing="-2" opacity=".5"><path d="M17.5-7.6H49V0H6.7v-7.6l14-14.2q8.9-9 11.1-11.6 4.4-4.9 6-8.2 1.8-3.4 1.8-6.7 0-5.3-3.7-8.6-3.8-3.4-9.7-3.4-4.3 0-9 1.5t-10 4.5v-9.1q5.4-2.2 10.1-3.3Q22.1-68 26-68q10.3 0 16.5 5.2 6.2 5.2 6.2 13.9 0 4-1.6 7.8-1.5 3.6-5.6 8.6-1 1.3-7 7.5l-17 17.3zM85.3-60.7q-7 0-10.5 6.9-3.5 6.8-3.5 20.5t3.5 20.6q3.5 6.9 10.5 6.9t10.5-6.9q3.5-6.9 3.5-20.6 0-13.7-3.5-20.5-3.5-7-10.5-7zm0-7.2q11.2 0 17 9 6 8.8 6 25.6 0 16.9-6 25.8-5.8 8.8-17 8.8T68-7.5q-5.9-9-5.9-25.8t6-25.7q5.9-8.9 17-8.9zM130-7.6h31.5V0H119v-7.6l14-14.2q8.9-9 11.2-11.6 4.3-4.9 6-8.2 1.7-3.4 1.7-6.7 0-5.3-3.7-8.6-3.7-3.4-9.7-3.4-4.2 0-9 1.5-4.7 1.5-10 4.5v-9.1q5.4-2.2 10.2-3.3 4.7-1.2 8.6-1.2 10.4 0 16.5 5.2 6.2 5.2 6.2 13.9 0 4-1.6 7.8-1.5 3.6-5.5 8.6l-7.1 7.5-17 17.3zM197.7-60.7q-7 0-10.5 6.9-3.5 6.8-3.5 20.5t3.5 20.6q3.6 6.9 10.5 6.9 7 0 10.5-6.9t3.5-20.6q0-13.7-3.5-20.5-3.5-7-10.5-7zm0-7.2q11.2 0 17.1 9 6 8.8 6 25.6 0 16.9-6 25.8-5.9 8.8-17 8.8-11.3 0-17.2-8.8-6-9-6-25.8t6-25.7q6-8.9 17.1-8.9z" transform="matrix(1.006 0 0 1 20 92.2)"/></g><g fill="#fff" aria-label="2020" font-family="Roboto-Regular" font-size="91.4" letter-spacing="-2"><path d="M37.7 84.6h31.6v7.6H26.7v-7.6l14.1-14.2q9-9 11.2-11.6 4.4-4.8 6-8.2 1.8-3.4 1.8-6.6 0-5.4-3.7-8.7-3.8-3.4-9.8-3.4-4.2 0-9 1.5Q32.6 35 27.2 38v-9.1q5.5-2.2 10.2-3.3 4.8-1.1 8.7-1.1 10.5 0 16.7 5.1Q69 34.7 69 43.4q0 4-1.6 7.8-1.5 3.7-5.6 8.7l-7.2 7.5-17 17.2zM105.8 31.5q-7 0-10.6 6.9-3.5 6.8-3.5 20.6 0 13.7 3.5 20.5 3.6 6.9 10.6 6.9t10.6-6.9q3.5-6.8 3.5-20.5 0-13.8-3.5-20.6-3.6-6.9-10.6-6.9zm0-7.1q11.3 0 17.2 8.8 6 8.9 6 25.8 0 16.8-6 25.7-6 8.8-17.2 8.8-11.3 0-17.3-8.8-5.9-9-5.9-25.7 0-17 6-25.8t17.2-8.8zM150.8 84.6h31.6v7.6H140v-7.6l14-14.2q9-9 11.2-11.6 4.4-4.8 6.1-8.2 1.8-3.4 1.8-6.6 0-5.4-3.8-8.7-3.7-3.4-9.8-3.4-4.2 0-9 1.5-4.7 1.5-10.1 4.5v-9.1q5.5-2.2 10.2-3.3 4.8-1.1 8.8-1.1 10.4 0 16.6 5.1 6.2 5.2 6.2 13.9 0 4-1.6 7.8-1.5 3.7-5.6 8.7l-7.2 7.5-17 17.2zM219 31.5q-7.1 0-10.6 6.9-3.5 6.8-3.5 20.6 0 13.7 3.5 20.5 3.5 6.9 10.5 6.9t10.6-6.9Q233 72.7 233 59q0-13.8-3.5-20.6-3.5-6.9-10.6-6.9zm0-7.1q11.2 0 17.1 8.8 6 8.9 6 25.8 0 16.8-6 25.7-6 8.8-17.2 8.8-11.3 0-17.2-8.8-6-9-6-25.7 0-17 6-25.8t17.2-8.8z"/></g></g></svg>